<svg data-version="2" id="window-exterior-75a8b304-bbac-4e9a-bc11-fcdc005c3255" width="905" height="1280" viewBox="0 0 905 1280" preserveAspectRatio="xMidYMid meet" fill="none" xmlns="http://www.w3.org/2000/svg" xmlns:xlink="http://www.w3.org/1999/xlink"> <g id="upper-light-fixed-fixed--fixed-fixed--exterior-4fdb3e84-c6c9-4357-8c34-168bcd0cf290" fill="none"> <g id="frame-4fdb3e84-c6c9-4357-8c34-168bcd0cf290" fill="none"> <g id="regular-frame-exterior-905bc170-1ca0-472d-9fdd-9ab7b8120f7b" fill="none"> <g id="pvc-frame-material-exterior-b678d725-51bf-41fc-ba2b-8dc7b3876e6a" fill="none"> <g id="pvc-structure-b678d725-51bf-41fc-ba2b-8dc7b3876e6a" filter="url(#frame-shadow-75a8b304-bbac-4e9a-bc11-fcdc005c3255)" fill="none"> <path fill="url(&quot;#decor-horizontal-75a8b304-bbac-4e9a-bc11-fcdc005c3255&quot;)" d="M 10,10 L 895,10 L 830,75 L 75,75 Z"></path> <path fill="url(&quot;#decor-horizontal-75a8b304-bbac-4e9a-bc11-fcdc005c3255&quot;)" d="M 10,1270 L 895,1270 L 830,1205 L 75,1205 Z"></path> <path fill="url(&quot;#decor-vertical-75a8b304-bbac-4e9a-bc11-fcdc005c3255&quot;)" d="M 10,10 L 75,75 L 75,1205 L 10,1270 Z"></path> <path fill="url(&quot;#decor-vertical-75a8b304-bbac-4e9a-bc11-fcdc005c3255&quot;)" d="M 895,10 L 830,75 L 830,1205 L 895,1270 Z"></path> </g> <g id="connection-lines-b678d725-51bf-41fc-ba2b-8dc7b3876e6a" filter="url(#connection-line-opacity-75a8b304-bbac-4e9a-bc11-fcdc005c3255)" fill="url(&quot;#connection-line-color-75a8b304-bbac-4e9a-bc11-fcdc005c3255&quot;)"> <path d="M 10,10 L 11.414213562373096,10 L 76.414213562373092,75 L 75,75 L 75,76.414213562373092 L 10,11.414213562373096 Z" fill="url(&quot;#connection-line-color-75a8b304-bbac-4e9a-bc11-fcdc005c3255&quot;)"></path> <path d="M 895,10 L 893.585786437626894,10 L 828.585786437626894,75 L 830,75 L 830,76.414213562373092 L 895,11.414213562373096 Z" fill="url(&quot;#connection-line-color-75a8b304-bbac-4e9a-bc11-fcdc005c3255&quot;)"></path> <path d="M 895,1270 L 893.585786437626894,1270 L 828.585786437626894,1205 L 830,1205 L 830,1203.585786437626894 L 895,1268.585786437626894 Z" fill="url(&quot;#connection-line-color-75a8b304-bbac-4e9a-bc11-fcdc005c3255&quot;)"></path> <path d="M 10,1270 L 11.414213562373096,1270 L 76.414213562373092,1205 L 75,1205 L 75,1203.585786437626894 L 10,1268.585786437626894 Z" fill="url(&quot;#connection-line-color-75a8b304-bbac-4e9a-bc11-fcdc005c3255&quot;)"></path> </g> </g> </g> <g id="transom-exterior-fd052236-f15c-4408-9f82-9216735b7bd1" fill="none"> <g id="pvc-transom-material-exterior-5096b58a-bf42-4196-a278-ab2b17bf964a" fill="none"> <g id="pvc-structure" fill="none"> <path fill="url(&quot;#decor-horizontal-75a8b304-bbac-4e9a-bc11-fcdc005c3255&quot;)" d="M 75,337.5 L 830,337.5 L 830,402.5 L 75,402.5 Z"></path> </g> <g id="connection-lines-5096b58a-bf42-4196-a278-ab2b17bf964a" filter="url(#connection-line-opacity-75a8b304-bbac-4e9a-bc11-fcdc005c3255)" fill="url(&quot;#connection-line-color-75a8b304-bbac-4e9a-bc11-fcdc005c3255&quot;)"> <rect x="75" y="337.5" width="2" height="65" fill="url(&quot;#connection-line-color-75a8b304-bbac-4e9a-bc11-fcdc005c3255&quot;)"></rect> <rect x="828" y="337.5" width="2" height="65" fill="url(&quot;#connection-line-color-75a8b304-bbac-4e9a-bc11-fcdc005c3255&quot;)"></rect> </g> </g> </g> <g id="mullion-connections-4fdb3e84-c6c9-4357-8c34-168bcd0cf290" fill="none"> <g id="mullion-exterior-308946b5-34e1-4182-b0aa-f92803996466" fill="none"> <g id="pvc-mullion-material-exterior-10a99804-2e84-4007-ba7a-260ea72812dc" fill="none"> <g id="pvc-structure-10a99804-2e84-4007-ba7a-260ea72812dc" filter="url(#mullion-shadow-75a8b304-bbac-4e9a-bc11-fcdc005c3255)" fill="none"> <path fill="url(&quot;#decor-vertical-75a8b304-bbac-4e9a-bc11-fcdc005c3255&quot;)" d="M 410,75 L 494,75 L 494,337.5 L 410,337.5 Z"></path> </g> <g id="connection-lines-10a99804-2e84-4007-ba7a-260ea72812dc" filter="url(#connection-line-opacity-75a8b304-bbac-4e9a-bc11-fcdc005c3255)" fill="url(&quot;#connection-line-color-75a8b304-bbac-4e9a-bc11-fcdc005c3255&quot;)"> <rect x="410" y="75" width="84" height="2" fill="url(&quot;#connection-line-color-75a8b304-bbac-4e9a-bc11-fcdc005c3255&quot;)"></rect> <rect x="410" y="335.5" width="84" height="2" fill="url(&quot;#connection-line-color-75a8b304-bbac-4e9a-bc11-fcdc005c3255&quot;)"></rect> </g> </g> </g> <g id="mullion-exterior-6dded8b6-d483-47d4-84d0-842b75e96bbe" fill="none"> <g id="pvc-mullion-material-exterior-7a127773-e1fb-40ab-814a-3e3477fa17b9" fill="none"> <g id="pvc-structure-7a127773-e1fb-40ab-814a-3e3477fa17b9" filter="url(#mullion-shadow-75a8b304-bbac-4e9a-bc11-fcdc005c3255)" fill="none"> <path fill="url(&quot;#decor-vertical-75a8b304-bbac-4e9a-bc11-fcdc005c3255&quot;)" d="M 410,402.5 L 494,402.5 L 494,1205 L 410,1205 Z"></path> </g> <g id="connection-lines-7a127773-e1fb-40ab-814a-3e3477fa17b9" filter="url(#connection-line-opacity-75a8b304-bbac-4e9a-bc11-fcdc005c3255)" fill="url(&quot;#connection-line-color-75a8b304-bbac-4e9a-bc11-fcdc005c3255&quot;)"> <rect x="410" y="402.5" width="84" height="2" fill="url(&quot;#connection-line-color-75a8b304-bbac-4e9a-bc11-fcdc005c3255&quot;)"></rect> <rect x="410" y="1203" width="84" height="2" fill="url(&quot;#connection-line-color-75a8b304-bbac-4e9a-bc11-fcdc005c3255&quot;)"></rect> </g> </g> </g> </g> </g> <g id="fixed-sashes-4fdb3e84-c6c9-4357-8c34-168bcd0cf290" fill="none"> <g id="upper-lights-4fdb3e84-c6c9-4357-8c34-168bcd0cf290" fill="none"> <g id="fixed-regular-sash-exterior-f95097be-d352-45d6-a7c3-efd8543a7a04" fill="none"> <g id="pvc-fixed-sash-material-exterior-e87fdb31-896f-4daf-8d5f-df17b946d3c7" fill="none"></g> <g id="glass-6b3f93ed-68b4-4964-af26-785122781dc1" fill="none"> <clipPath id="visible-glass-6b3f93ed-68b4-4964-af26-785122781dc1" fill="none"> <rect x="75" y="75" width="335" height="262.5" fill="none"></rect> </clipPath> <rect x="75" y="75" width="335" height="335" fill="url(&quot;#glass-pattern-75a8b304-bbac-4e9a-bc11-fcdc005c3255&quot;)" clip-path="url(#visible-glass-6b3f93ed-68b4-4964-af26-785122781dc1)"></rect> <g id="glass-frame-6b3f93ed-68b4-4964-af26-785122781dc1" fill="none"> <path opacity="0.3" fill="#000000" d="M 72,72 L 413,72 L 413,340.5 L 410,337.5 L 410,75 L 75,75 Z"></path> <path opacity="0.1" fill="#000000" d="M 72,72 L 72,340.5 L 413,340.5 L 410,337.5 L 75,337.5 L 75,75 Z"></path> </g> </g> </g> <g id="fixed-regular-sash-exterior-ba832ab8-106b-48f9-b47b-c22c1e8f3dc5" fill="none"> <g id="pvc-fixed-sash-material-exterior-20db58a3-caa1-4126-872c-e2ba589c66bf" fill="none"></g> <g id="glass-8083cf31-8f48-4cf6-bbc4-aa71ccd5a06f" fill="none"> <clipPath id="visible-glass-8083cf31-8f48-4cf6-bbc4-aa71ccd5a06f" fill="none"> <rect x="494" y="75" width="336" height="262.5" fill="none"></rect> </clipPath> <rect x="494" y="75" width="336" height="336" fill="url(&quot;#glass-pattern-75a8b304-bbac-4e9a-bc11-fcdc005c3255&quot;)" clip-path="url(#visible-glass-8083cf31-8f48-4cf6-bbc4-aa71ccd5a06f)"></rect> <g id="glass-frame-8083cf31-8f48-4cf6-bbc4-aa71ccd5a06f" fill="none"> <path opacity="0.3" fill="#000000" d="M 491,72 L 833,72 L 833,340.5 L 830,337.5 L 830,75 L 494,75 Z"></path> <path opacity="0.1" fill="#000000" d="M 491,72 L 491,340.5 L 833,340.5 L 830,337.5 L 494,337.5 L 494,75 Z"></path> </g> </g> </g> </g> <g id="fixed-regular-sash-exterior-4bd6e278-bfcb-4795-90fd-5e5f1fa399b3" fill="none"> <g id="pvc-fixed-sash-material-exterior-ec41ef85-66d9-4dba-a42e-4247f9bd23be" fill="none"></g> <g id="glass-6cfd9124-a0d2-41e7-9e40-30b6c3ccbd26" fill="none"> <clipPath id="visible-glass-6cfd9124-a0d2-41e7-9e40-30b6c3ccbd26" fill="none"> <rect x="75" y="402.5" width="335" height="802.5" fill="none"></rect> </clipPath> <rect x="75" y="402.5" width="802.5" height="802.5" fill="url(&quot;#glass-pattern-75a8b304-bbac-4e9a-bc11-fcdc005c3255&quot;)" clip-path="url(#visible-glass-6cfd9124-a0d2-41e7-9e40-30b6c3ccbd26)"></rect> <g id="glass-frame-6cfd9124-a0d2-41e7-9e40-30b6c3ccbd26" fill="none"> <path opacity="0.3" fill="#000000" d="M 72,399.5 L 413,399.5 L 413,1208 L 410,1205 L 410,402.5 L 75,402.5 Z"></path> <path opacity="0.1" fill="#000000" d="M 72,399.5 L 72,1208 L 413,1208 L 410,1205 L 75,1205 L 75,402.5 Z"></path> </g> </g> </g> <g id="fixed-regular-sash-exterior-74014870-a5ba-416a-a8e2-3953ac6f3b1d" fill="none"> <g id="pvc-fixed-sash-material-exterior-79305ba6-f758-4ceb-82a1-b18cdce2b0bc" fill="none"></g> <g id="glass-6af8952e-47d8-47ec-855b-2102a47fe3c1" fill="none"> <clipPath id="visible-glass-6af8952e-47d8-47ec-855b-2102a47fe3c1" fill="none"> <rect x="494" y="402.5" width="336" height="802.5" fill="none"></rect> </clipPath> <rect x="494" y="402.5" width="802.5" height="802.5" fill="url(&quot;#glass-pattern-75a8b304-bbac-4e9a-bc11-fcdc005c3255&quot;)" clip-path="url(#visible-glass-6af8952e-47d8-47ec-855b-2102a47fe3c1)"></rect> <g id="glass-frame-6af8952e-47d8-47ec-855b-2102a47fe3c1" fill="none"> <path opacity="0.3" fill="#000000" d="M 491,399.5 L 833,399.5 L 833,1208 L 830,1205 L 830,402.5 L 494,402.5 Z"></path> <path opacity="0.1" fill="#000000" d="M 491,399.5 L 491,1208 L 833,1208 L 830,1205 L 494,1205 L 494,402.5 Z"></path> </g> </g> </g> </g> </g> <defs> <g id="glass-definition-5f1da6f7-18dc-4796-a7da-3ac67f31deef"> <pattern id="glass-pattern-75a8b304-bbac-4e9a-bc11-fcdc005c3255" width="100%" height="100%" viewBox="0 0 836 1027"> <g opacity="0.55"> <rect x="489.643" y="3270.69" width="3187.01" height="4478.12" transform="rotate(-143.13 489.643 3270.69)" fill="url(#glass-color-5f1da6f7-18dc-4796-a7da-3ac67f31deef)" style="mix-blend-mode:multiply"></rect> <rect x="489.643" y="3270.69" width="3187.01" height="4478.12" transform="rotate(-143.13 489.643 3270.69)" fill="#64BEF0" fill-opacity="0.25"></rect> </g> </pattern> <linearGradient id="glass-color-5f1da6f7-18dc-4796-a7da-3ac67f31deef" x1="489.643" y1="5437.44" x2="3676.65" y2="5437.44" gradientUnits="userSpaceOnUse"> <stop stop-color="#FDFDFD"></stop> <stop offset="0.109705" stop-color="#F4F4F4"></stop> <stop offset="0.198312" stop-color="#F8F8F8"></stop> <stop offset="0.225738" stop-color="#F3F3F3"></stop> <stop offset="0.225738" stop-color="#F6F6F6"></stop> <stop offset="0.35443" stop-color="#EEEEEE"></stop> <stop offset="0.366034" stop-color="#F4F4F4"></stop> <stop offset="0.394515" stop-color="#EFEFEF"></stop> <stop offset="0.407173" stop-color="#F3F3F3"></stop> <stop offset="0.429325" stop-color="#EEEEEE"></stop> <stop offset="0.473629" stop-color="#F2F2F2"></stop> <stop offset="0.473629" stop-color="#F3F3F3"></stop> <stop offset="0.487342" stop-color="#FBFBFB"></stop> <stop offset="0.53481" stop-color="#F3F3F3"></stop> <stop offset="0.546414" stop-color="#FCFBFB"></stop> <stop offset="0.563291" stop-color="#EFEFEF"></stop> <stop offset="0.64346" stop-color="#EFEFEF"></stop> <stop offset="0.705696" stop-color="white"></stop> <stop offset="0.725738" stop-color="#F2F2F2"></stop> <stop offset="1" stop-color="#EAEAEA"></stop> </linearGradient> </g> <g id="connection-lines-1c3511eb-c367-49b6-baed-2eee7c87f1a2"> <filter id="connection-line-opacity-75a8b304-bbac-4e9a-bc11-fcdc005c3255" x="0" y="0" width="100%" height="100%"> <feComponentTransfer> <feFuncA type="table" tableValues="0 0.12"></feFuncA> </feComponentTransfer> </filter> <linearGradient id="connection-line-color-75a8b304-bbac-4e9a-bc11-fcdc005c3255"> <stop stop-color="#000000" offset="0"></stop> </linearGradient> </g> <filter id="frame-shadow-75a8b304-bbac-4e9a-bc11-fcdc005c3255"> <feGaussianBlur in="SourceAlpha" stdDeviation="2"></feGaussianBlur> <feOffset dx="-1" dy="1"></feOffset> <feMerge> <feMergeNode></feMergeNode> <feMergeNode in="SourceGraphic"></feMergeNode> </feMerge> </filter> <filter id="inset-sash-shadow-75a8b304-bbac-4e9a-bc11-fcdc005c3255" x="-50%" y="-50%" width="200%" height="200%"> <feComponentTransfer in="SourceAlpha"> <feFuncA type="table" tableValues="1 0"></feFuncA> </feComponentTransfer> <feGaussianBlur stdDeviation="3"></feGaussianBlur> <feOffset dx="-2" dy="2" result="offsetblur"></feOffset> <feFlood flood-color="rgb(0, 0, 0)" result="color"></feFlood> <feComposite in2="offsetblur" operator="in"></feComposite> <feComposite in2="SourceAlpha" operator="in"></feComposite> <feMerge> <feMergeNode in="SourceGraphic"></feMergeNode> <feMergeNode></feMergeNode> </feMerge> </filter> <filter id="transom-shadow-75a8b304-bbac-4e9a-bc11-fcdc005c3255" x="-50%" y="-50%" width="200%" height="200%"> <feComponentTransfer in="SourceAlpha"> <feFuncA type="table" tableValues="1 0"></feFuncA> </feComponentTransfer> <feGaussianBlur stdDeviation="2"></feGaussianBlur> <feOffset dx="0" dy="0" result="offsetblur"></feOffset> <feFlood flood-color="rgb(0, 0, 0)" result="color"></feFlood> <feComposite in2="offsetblur" operator="in"></feComposite> <feComposite in2="SourceAlpha" operator="in"></feComposite> <feMerge> <feMergeNode in="SourceGraphic"></feMergeNode> <feMergeNode></feMergeNode> </feMerge> </filter> <filter id="mullion-shadow-75a8b304-bbac-4e9a-bc11-fcdc005c3255" x="-50%" y="-50%" width="200%" height="200%"> <feComponentTransfer in="SourceAlpha"> <feFuncA type="table" tableValues="1 0"></feFuncA> </feComponentTransfer> <feGaussianBlur stdDeviation="2"></feGaussianBlur> <feOffset dx="0" dy="0" result="offsetblur"></feOffset> <feFlood flood-color="rgb(0, 0, 0)" result="color"></feFlood> <feComposite in2="offsetblur" operator="in"></feComposite> <feComposite in2="SourceAlpha" operator="in"></feComposite> <feMerge> <feMergeNode in="SourceGraphic"></feMergeNode> <feMergeNode></feMergeNode> </feMerge> </filter> <g id="walnut-structure"> <g id="walnut-filters"> <style> .cls-1-d6fb5a70-cbcc-44cb-ba98-2f3f3d15e799{fill:#532D17;} .cls-1-d6fb5a70-cbcc-44cb-ba98-2f3f3d15e799, .cls-2-d6fb5a70-cbcc-44cb-ba98-2f3f3d15e799, .cls-3-d6fb5a70-cbcc-44cb-ba98-2f3f3d15e799, .cls-4-d6fb5a70-cbcc-44cb-ba98-2f3f3d15e799{stroke-width:0px;} .cls-2-d6fb5a70-cbcc-44cb-ba98-2f3f3d15e799{fill:#643616;} .cls-3-d6fb5a70-cbcc-44cb-ba98-2f3f3d15e799{fill:#321B07;} .cls-4-d6fb5a70-cbcc-44cb-ba98-2f3f3d15e799{fill:#4E2B15;} </style> </g> <pattern id="walnut" x="0" y="0" width="500" height="300" patternUnits="userSpaceOnUse"> <g id="Layer_2-d6fb5a70-cbcc-44cb-ba98-2f3f3d15e799"> <rect class="cls-2-d6fb5a70-cbcc-44cb-ba98-2f3f3d15e799" width="500" height="300"></rect> </g> <g id="Layer_1-d6fb5a70-cbcc-44cb-ba98-2f3f3d15e799"> <path class="cls-3-d6fb5a70-cbcc-44cb-ba98-2f3f3d15e799" d="M500.08,290.03s-3.47,0-9.84.02c-8.07.49-16.17.91-24.29,1.26-2.71.12-5.42.22-8.13.32-27.4,2.78-54.4.75-81.71.49-2.73-.07-5.46-.14-8.19-.22-13.64-.41-27.27-1.03-40.86-1.85-2.49,0-4.99-.01-7.51-.02-2.51,0-5.03,0-7.56.02-30.58,2.26-61.92,6.3-93.41,2.03-2.6-.05-5.18-.05-7.76-.05-7.73,0-15.07-2.01-22.67-2.01h-53.37c-32.36-2.8-64.36-2.8-96.08,0-2.68,0-5.24,0-7.67,0H.09v-1.02h30.96c2.43,0,4.99,0,7.67-.01,31.71-3.81,63.71-2.79,96.08.01h53.37c7.67,0,15.16,2.01,23.06,2.01,2.64,0,5.28,0,7.95.07,30.91,4.25,62.25.2,92.84-2.05,2.52-.03,5.05-.03,7.56-.03,2.51,0,5.01,0,7.51,0,13.59.82,27.22,1.44,40.85,1.85,2.73.08,5.46.16,8.19.22,24.31.25,49.31.25,73.57-.22,2.71-.09,5.43-.18,8.14-.28,10.84-.4,21.65-.92,32.42-1.58,6.37,0,9.84,0,9.84,0v1.02Z"></path> <path class="cls-3-d6fb5a70-cbcc-44cb-ba98-2f3f3d15e799" d="M500.08,281.65s-3.47,0-9.84.07c-17.13,1.58-34.27,2.37-51.43,2.64-2.86.05-5.72.08-8.58.09-8.8-.23-16.8-.23-25.75-.17-2.86-.05-5.73-.11-8.59-.18-25.77-.62-51.57-1.92-77.4-2.99-.26-.01-.51-.02-.77-.03-4.38-.18-8.77.03-13.12.61-31.88,4.29-62.41,5.34-94.17,3.05-2.68.03-5.35.06-8.03.08-19.27.18-39.16-2.75-58.32-2.96-2.4-.03-4.79-.06-7.18-.1-35.46-3.7-71.46-3.7-106.43-.12H.09v-1.32h30.37c34.97-2.26,70.97-4.3,106.43.23,2.39.07,4.79.14,7.18.2,19.17.46,39.05,3.52,58.32,3.39,2.68-.02,5.35-.04,8.03-.07,32.49,2,63.72.97,96.37-3.71,2.42-.35,4.86-.49,7.3-.38,1.6.07,3.2.16,4.8.24,27.43,1.45,55,2.76,82.53,3.23,2.75.05,5.51.09,8.26.12s5.5.05,8.26.06c2.75.01,5.5.01,8.25,0,24.74-.08,49.42-1.02,73.88-3.31v1.32Z"></path> <path class="cls-3-d6fb5a70-cbcc-44cb-ba98-2f3f3d15e799" d="M500.08,275.62c-58.85,5.25-118.02,3.64-177.09-.85-1.07-.08-2.13-.16-3.2-.25-3.49-.27-6.99-.21-10.46.18-32.36,3.57-64.81,6.9-96.87,4.19-2.48.06-4.96.11-7.44.16-4.96.09-9.73-1.47-14.69-1.43-2.67.02-5.34.03-8.02.03-7.88,1.44-15.88-.6-24.05-.29-2.67-.07-5.35-.15-8.02-.25-2.67-.1-5.35-.21-8.02-.34-2.67-.13-5.35-.27-8.02-.43-31.75-3.36-62.75-4.38-94.79-.18-2.58.12-5.18.18-7.77.21-9.7.1-21.25-1.87-31.53-.75v-1.02c10.34-.73,21.14.9,31.53.83,2.6-.02,5.19-.05,7.78-.15,32.04-4.34,63.04-3.32,95.39.15,2.65.16,5.31.3,7.97.42,2.66.12,5.32.23,7.98.33,12.69-.14,26.69,1.89,39.99.47,2.67-.02,5.15,1.58,7.82,1.54,2.67-.04,5.35-.09,8.02-.14s5.35-.12,8.02-.18c32.46,2.77,64.52-1.62,97.08-4.5,2.36-.21,4.73-.22,7.09-.03,1.64.13,3.29.26,4.93.38,59.28,4.53,117.53,6.15,176.38.89v1.02Z"></path> <path class="cls-3-d6fb5a70-cbcc-44cb-ba98-2f3f3d15e799" d="M500.08,269.22c-60.65,7.83-120.65,3.76-180.99-2.31-1.67.03-3.34.06-5.01.09-1.67.04-3.34.07-5.01.12-29.64,2.81-60.64,3.82-90.95,3.46-2.45.08-4.9.16-7.35.23-2.67.08-5.34.15-8.01.21-20.99-.08-42.53-.08-63.46-.3-2.33-.02-4.64-.05-6.95-.08-31.91-4.79-64.91-2.75-96.9.69-2.34.04-4.67.05-7.01,0-9.34-.17-17.93-3.27-28.36-2.13v-1.31c8.39-.81,19.82,2.38,28.36,2.48,2.34.03,4.67.02,7.01-.01,32.98-3.5,64.98-5.54,97.87-.84,2.31.04,4.63.07,6.96.11,20.94.29,42.48.29,63.49.32,2.67-.05,5.34-.13,8.01-.21,2.45-.07,4.9-.15,7.35-.24,29.3-1.63,57.3-.61,85.92-3.47,1.67-.05,3.34-.11,5.01-.15,2.28-.06,4.56-.12,6.83-.17,2.12-.05,4.23.05,6.34.27,59.28,6.11,118.23,9.9,176.84,1.91v1.32Z"></path> <path class="cls-3-d6fb5a70-cbcc-44cb-ba98-2f3f3d15e799" d="M500.08,262.64c-60.65,9.32-119.65,2.2-181.1-3.19-5.44.14-10.88.34-16.32.57-1.81.08-3.63.15-5.44.23-22.78,2.55-44.78,1.53-67.72,3.34-2.51.11-5.01.23-7.52.35-2.78.13-5.57.25-8.35.36-25.37.48-49.78-.3-75.05.89-2.81.13-5.63.29-8.46.47-30.68-2.86-61.68-3.88-93.06.23-2.46.07-4.91.11-7.36.1-9.81-.04-15.25-4.13-29.6-3.36v-1.01c11.99-1.08,22.95,3.77,32.77,3.66,2.7-.03,5.41-.1,8.12-.22,28.46-2.27,55.46-4.3,83.86-.74,2.38-.12,4.78-.24,7.18-.36,26.41-1.31,53.8-2.03,79.93-.36,2.9-.06,5.8-.16,8.71-.27,2.54-.09,5.08-.19,7.63-.29,21.15-.25,43.15-2.29,64.53-3.16,1.85-.1,3.71-.21,5.56-.31s3.71-.21,5.56-.32c15.5-1.55,29.5-1.55,44.5.48,52,8.14,101,7.13,151.65,1.88v1.01Z"></path> <path class="cls-3-d6fb5a70-cbcc-44cb-ba98-2f3f3d15e799" d="M500.07,254.3c-45.65,4.42-91.65,5.44-138.65-1.69-17-3.05-33-4.07-49.8-1.38-7.63.57-15.25,1.12-22.87,1.65-20,1.37-39.99,2.55-59.97,3.46-2.85.13-5.71.25-8.56.37-19.8-.02-39.8-4.09-59.8-2.06-11.67,1.7-24.03,2.69-35.95,3.19-2.38.1-4.75.18-7.09.24-23.96-.38-47.96-1.39-71.49.6-2.54.09-4.81-.55-7.35-.53-12.69.08-19.62-6.25-38.48-3.85v-1.31c17.94-1.76,30.63,4.69,44.51,4.41,2.49-.05,4.97-.12,7.47-.21,21.37-.5,42.37-.5,63.22-.08,2.85-.03,5.68-.1,8.52-.19,31.14-1.01,61.44-4.97,92.32-1.06,2.79-.05,5.6-.17,8.4-.3,25.24-1.2,50.51-2.92,75.82-5.03,7.34-.61,14.68-1.22,22.01-1.52,60.08,1.57,119.08,14.81,177.72,3.98v1.31Z"></path> <path class="cls-3-d6fb5a70-cbcc-44cb-ba98-2f3f3d15e799" d="M500.07,247.74c-32.5,5.99-64.82,8.95-97.39,5.93-27.21-2.52-54.68-8.21-81.77-7.8-6.73.26-13.48.84-20.23,1.43-25.23,2.24-50.46,4.17-75.7,5.51-.36.02-.73.04-1.09.06-4.34.22-8.69-.06-12.99-.7-32.13-4.78-63.34,2.46-95.35,1.91-2.81-.11-5.62-.22-8.42-.35-2.81-.13-5.62-.27-8.42-.43-2.93-.16-5.86-.34-8.79-.53-30.47-1.15-60.41-6.1-89.82-5.01v-1.01c25.48-2.27,60.36,3.87,88.56,4.33,2.87.17,5.74.32,8.62.47,5.27.26,10.54.49,15.82.67,2.64.09,5.28.18,7.92.24,34.43-4.91,67.43-3.89,101.46-.81,2.51-.09,5.01-.18,7.52-.28,17.54-.69,35.11-1.64,52.69-3.42,7.53-.76,15.07-1.52,22.6-2.23,12.93-1.71,27.41-1.69,40.15.3,19.05,1.49,38.37,5.79,57.35,7.09,32.83,2.25,65.2-1.98,97.29-6.36v1.01Z"></path> <path class="cls-3-d6fb5a70-cbcc-44cb-ba98-2f3f3d15e799" d="M500.07,241.38c-32.64,2.07-65.81,12.34-98.81,9.29-32-2.04-63.83-11.8-95.92-8.4-7.34.73-14.68,1.45-22.01,2.15-17.29,1.66-34.56,3-51.83,3.99-2.88.16-5.76.32-8.63.47-35.44-3.38-69.44-3.38-103.65.64-2.88-.12-5.77-.25-8.65-.39-5.77-.28-11.54-.62-17.31-1-2.89-.19-5.77-.39-8.67-.59-27.15,0-58.32-7.36-84.51-6.15v-1.31c27.73-1.44,56.35,6.44,84.26,6.05,2.85.21,5.69.42,8.53.63,5.68.42,11.36.8,17.04,1.14,2.84.17,5.68.33,8.52.48,32.52-2.76,65.04-2.88,97.92-.55,3.12.22,6.25.22,9.36-.01,1.24-.09,2.48-.19,3.72-.29,20-2.04,39.94-2.99,59.82-5.31,6.63-.77,13.25-1.53,19.87-2.24,10.31-1.1,18.68.04,28.68,1.06,20.96,2.33,41.35,7.87,61.87,9.12,33.33,2.04,67.2-7.99,100.39-10.09v1.31Z"></path> <path class="cls-3-d6fb5a70-cbcc-44cb-ba98-2f3f3d15e799" d="M115.73,300.47h65.13c-.76-.08-1.52-.13-2.28-.13-1.53,0-3.06,0-4.58,0h-34.25c-2.03,0-4.04-.01-6.03-.05-30.29-2.12-61.28-2.12-91.48.02-2.63.03-5.14.03-7.55.03-21.68,0-34.59-.69-34.59-.69v.82h60.28c18.39-.89,36.95-.89,55.36,0Z"></path> <path class="cls-3-d6fb5a70-cbcc-44cb-ba98-2f3f3d15e799" d="M279.89,300.47h48.96c-.35-.04-.7-.08-1.05-.12-2.1,0-4.2,0-6.31-.01h-39.3c-.68.04-1.46.08-2.29.13Z"></path> <path class="cls-3-d6fb5a70-cbcc-44cb-ba98-2f3f3d15e799" d="M431.93,299.7c-2.52.19-5.03.39-7.54.61-.6.06-1.2.1-1.8.16h34.63c12.24-.59,24.57-1.04,36.87,0h5.98v-.82c-22.82-.48-44.74-2.49-68.15.05Z"></path> <path class="cls-3-d6fb5a70-cbcc-44cb-ba98-2f3f3d15e799" d="M500.08,294.58c-22.82-.48-44.74-2.49-68.15.05-2.52.19-5.03.39-7.54.61-2.67.27-5.35.5-8.02.72-29.43,2.37-59.58,2.92-88.57-.68-2.1,0-4.2,0-6.31-.01h-38.67c-2.02,0-4.05,0-6.07,0-32.31,3.93-65.47,4.54-97.03.6-1.96,0-3.76-.61-5.71-.61h-34.25c-2.03,0-4.04-.01-6.03-.05-30.29-2.12-61.28-2.12-91.48.02-2.63.03-5.14.03-7.55.03-21.68,0-34.59-.68-34.59-.68v1.42s12.92.58,34.59.58c2.41,0,4.93,0,7.55-.02,30.2-2.46,61.22-2.98,91.5-.54,1.99.03,4,.72,6.02.56,11.09-.86,22.55,0,34.25,0,1.95,0,3.91,0,5.87,0,31.56,2.61,64.56,3.63,96.87,0,2.03,0,4.05,0,6.07,0h38.67c2.11,0,4.22,0,6.31,0,29,3.33,59.14,2.75,88.57.62,2.68-.19,5.35-.4,8.02-.64,2.5-.04,8.37-.83,10.87-1.12,20.43-2.38,42.02-2.35,64.82.56v-1.43Z"></path> <path class="cls-3-d6fb5a70-cbcc-44cb-ba98-2f3f3d15e799" d="M500.08,234.61s-13.89-5.6-31.66-8.94c-37-8.18-75.51-14.25-113-6.14-41.97,9.07-83.8,15.87-125.59,19.92-1.52.15-3.05.29-4.57.43-2.92.27-5.85.3-8.78.16-31.87-1.51-62.51.49-94.11,3.52-2.99-.07-5.97-.15-8.96-.25-8.96-.3-17.93-.75-26.89-1.35-2.89-.19-5.79-.39-8.69-.59-24.41-.97-35.09-2.73-58.77-5.2-2.22-.23-12.48,1.01-18.98-1.57v-1.02c6.43,2.88,16.7,1.33,18.99,1.57,24.58,2.54,34.36,5.24,59.58,5.4,2.94.2,5.89.4,8.83.58,8.53.53,17.05.9,25.58,1.13,2.84.08,5.68.14,8.52.18,29.88-2.98,59.9-4.02,90.61-3.8,2,.01,4-.06,5.99-.24,1.84-.17,3.67-.35,5.51-.54,39.65-4.01,79.24-10.39,118.74-18.35,42.59-8.58,85-5.09,126.2,4.93,17.56,3.53,31.45,9.13,31.45,9.13v1.02Z"></path> <path class="cls-3-d6fb5a70-cbcc-44cb-ba98-2f3f3d15e799" d="M500.08,226.23c-15.82-6.63-13.96-5.75-30.1-10.14-37.56-9.28-75.56-9.39-114.56-4.3-44.69,5.69-89,12.9-133.29,18.05-2.95.34-5.9.68-8.86,1-29.85.39-58.85,4.46-88.65,5.61-2.96.01-5.92,0-8.89-.02-14.82-.14-29.66-.83-44.54-2.19-2.89-.26-5.77-.55-8.67-.85-14.1-1.14-28.1-4.19-42.55-5.43-3.34-.36-6.26-.09-8.75-.32-1.75-.16-6.34.58-11.14-1.42v-1.32c9.72,3.87,14.6,1.39,20.22,2.02,3.37.38,7.16.85,11.38,1.4,10.75.87,20.75,3.93,31.4,4.39,2.92.35,5.83.67,8.74.97,15,1.52,29.98,2.25,44.96,2.37,3,.02,5.99.02,8.98,0,29.66-3.79,59.66-2.77,89.78-6.36,2.99-.36,5.98-.72,8.98-1.09,50.87-6.35,101.78-15.16,152.9-19.85,31-3.05,62-1.93,92.88,5.64,16.95,4.57,29.77,10.53,29.77,10.53v1.32Z"></path> <path class="cls-3-d6fb5a70-cbcc-44cb-ba98-2f3f3d15e799" d="M500.08,219.26s-11.18-2.5-28.75-7.06c-75.91-19.66-151.9-.31-228.9,11.9-9,1.39-17.96,2.59-26.9,3.6-2.98.34-5.95.66-8.92.95-27.18,2.57-53.18,1.55-79.78,3.23-2.95-.05-5.89-.12-8.84-.22-23.57-.72-47.17-2.63-70.95-5.62C17,221.88.09,219.26.09,219.26v-1.02s17.18,2.9,47.16,7.06c23.2,3.82,46.34,5.53,69.45,5.75,2.89.03,5.78.03,8.67.01,26.07-.85,52.07-2.89,77.89-4.94,2.88-.32,5.77-.64,8.65-.98,54.77-6.39,109.52-16.31,164.52-21.4,32-3.05,64-1.02,95.03,7.16,17.69,4.55,28.62,7.33,28.62,7.33v1.02Z"></path> <path class="cls-3-d6fb5a70-cbcc-44cb-ba98-2f3f3d15e799" d="M500.08,210.21c-51.3-17.7-105.98-21.67-161.65-10.53C222.43,223.09,64.33,233.58.09,210.21v1.76c76.17,28.56,246.48,2.82,370.34-14.33,43.78-6.08,87.56.95,129.65,14.33v-1.76Z"></path> <path class="cls-3-d6fb5a70-cbcc-44cb-ba98-2f3f3d15e799" d="M117.99,220.97c-37.68-.72-92.89-9.81-117.9-17.56v-1.32c29.97,8.78,79.76,18.58,117.9,18.88Z"></path> <path class="cls-3-d6fb5a70-cbcc-44cb-ba98-2f3f3d15e799" d="M117.99,220.97c25.98.49,52.13-.78,78.51-4.02-26.26,2.74-52.4,4.23-78.51,4.02Z"></path> <path class="cls-3-d6fb5a70-cbcc-44cb-ba98-2f3f3d15e799" d="M410.69,187.45c-20.15-.66-40.46.6-60.9,3.78,20.38-2.5,40.67-4,60.9-3.78Z"></path> <path class="cls-3-d6fb5a70-cbcc-44cb-ba98-2f3f3d15e799" d="M500.08,202.1c-29.71-10.22-59.48-14.32-89.39-14.65,30.18.99,60,6.3,89.39,15.96v-1.32Z"></path> <path class="cls-3-d6fb5a70-cbcc-44cb-ba98-2f3f3d15e799" d="M196.5,216.95c44.46-4.63,89.28-12.82,134.93-22.37,6.13-1.29,12.26-2.4,18.37-3.35-39.69,4.88-79.74,13.54-120.37,20.66-11.02,2.04-21.99,3.71-32.93,5.06Z"></path> <path class="cls-3-d6fb5a70-cbcc-44cb-ba98-2f3f3d15e799" d="M500.08,191.58c-51.33-15.5-103.52-21.25-157.65-10.23-21.37,4.5-42.53,8.9-63.55,12.91-3,.57-6,1.14-9,1.7-17.45,3.72-35.45,5.75-53.67,8.91-2.97.42-5.93.83-8.9,1.23-67.61,9.03-134.5,12.91-207.22-14.52v1.61c71.18,26.39,148.96,23.42,222.54,12.32,2.94-.44,5.89-.9,8.83-1.37,11.96-1.41,22.96-3.45,35.45-6.17,2.96-.55,5.92-1.12,8.89-1.69,20.76-4,41.62-8.4,62.62-12.9,56.13-11.03,109.34-5.27,161.65,9.81v-1.61Z"></path> <path class="cls-3-d6fb5a70-cbcc-44cb-ba98-2f3f3d15e799" d="M199.32,202.34c-31.8,4.16-63.48,6.41-95.14,5.94,30.99,1.26,62.26-.04,94.06-5.22,3.02-.49,6.05-1.02,9.08-1.59.66-.16,1.33-.32,1.99-.49-.48.06-.96.12-1.44.18-2.85.41-5.7.8-8.55,1.18Z"></path> <path class="cls-3-d6fb5a70-cbcc-44cb-ba98-2f3f3d15e799" d="M104.18,208.28c-33.26-1.36-74.75-12.04-104.09-24.08v1.23c30.72,13.9,70.53,22.35,104.09,22.84Z"></path> <path class="cls-3-d6fb5a70-cbcc-44cb-ba98-2f3f3d15e799" d="M500.08,184.2c-30.42-10.07-60.94-14.09-91.6-14.21,31.05,1.11,61.73,6.57,91.6,15.44v-1.23Z"></path> <path class="cls-3-d6fb5a70-cbcc-44cb-ba98-2f3f3d15e799" d="M288.82,184.27c-3,.61-6.01,1.22-9.01,1.84-23.71,3.29-47.06,9.16-70.5,14.87,22.1-2.64,44.61-9.51,67.22-11.98,2.87-.6,5.75-1.2,8.62-1.82,14.38-3.09,28.8-6.42,43.27-9.9,1.53-.34,3.06-.67,4.59-.99-14.69,2.27-29.43,5-44.2,7.98Z"></path> <path class="cls-3-d6fb5a70-cbcc-44cb-ba98-2f3f3d15e799" d="M333.02,176.29c25.26-3.9,50.4-6.39,75.46-6.3-24.99-.89-50.22,1.04-75.46,6.3Z"></path> <path class="cls-3-d6fb5a70-cbcc-44cb-ba98-2f3f3d15e799" d="M500.08,176.88c-53.02-14.03-107.36-20.83-163.65-8.77-15,3.21-29.91,6.45-44.76,9.57-2.97.62-5.93,1.25-8.9,1.86-30.35,3.84-59.35,7.91-88.21,15.84-2.92.43-5.88,1.25-8.8,1.63-45.19,5.84-86.01,11.06-142.22-2.04-15.59-3.64-28.18-14.28-43.46-18.09v1.2c15.08,4.03,27.3,15.38,42.72,18.84,46.95,10.53,98.2,9.4,145.62,1.73,2.94-.48,5.89-.98,8.83-1.51,26.17-6.63,52.17-13.76,79.08-15.91,2.91-.5,5.83-1.09,8.74-1.68,72.16-14.7,143.64-25.58,214.99-1.37v-1.3Z"></path> <path class="cls-3-d6fb5a70-cbcc-44cb-ba98-2f3f3d15e799" d="M182.32,190.58c-45.64,6.11-95.51,7.54-142.49-2.56-13.91-2.99-26.19-14.53-39.74-17.84v1.02c13.4,3.36,25.51,15.19,39.26,18.57,44.65,10.96,91.58,6.86,137.63,4.56,2.3-.11,4.55-.73,6.83-1.13,1.09-.19,2.17-.44,3.24-.75,23.41-6.79,45.86-13.81,69.1-17.64-22.38,2.48-44.24,7.65-65.24,14.47-2.87.49-5.73.91-8.59,1.3Z"></path> <path class="cls-3-d6fb5a70-cbcc-44cb-ba98-2f3f3d15e799" d="M283.33,171.99c-9.24.33-18.27,1.35-27.18,2.82,6.95-.77,13.95-1.29,20.99-1.51,2.88-.49,5.9-.69,8.79-1.32,4.69-1.01,9.38-2.09,14.07-3.18-2.88.53-5.77,1.07-8.66,1.62-2.67.51-5.34,1.03-8.01,1.56Z"></path> <path class="cls-3-d6fb5a70-cbcc-44cb-ba98-2f3f3d15e799" d="M500.08,170.17c-19.16-4.96-38.43-9.03-57.85-11.7-2.84-.39-5.69-.75-8.52-1.08-20.28-1.5-40.28-4.55-60.39-1.7-2.9.19-5.81.43-8.72.71-11.65,1.12-23.37,2.95-35.17,5.6-9.87,2.17-19.65,4.53-29.43,6.8,26.41-4.84,52.66-8.58,78.9-10.1,2.91-.17,5.82-.31,8.74-.42,14.79-.34,28.79-.34,43.67.63,2.91.21,5.83.46,8.74.74,19.93,1.94,39.92,5.64,60.03,11.55v-1.02Z"></path> <path class="cls-3-d6fb5a70-cbcc-44cb-ba98-2f3f3d15e799" d="M500.08,162.61c-13.66-3.64-26.96-6.63-40.79-9.11-2.77-.5-5.54-.97-8.31-1.41-10.55-1.28-22.55-3.32-33.26-3.24-2.79-.2-5.58-.37-8.38-.53-13.98-.77-28.05-.98-42.2-.37-2.83.2-5.64.44-8.46.72-14.07,1.4-28.16,3.76-42.25,7.23-8.83,2.12-17.65,4.23-26.46,6.31-2.94.69-5.87,1.38-8.8,2.06-18.74,4.86-37.74,1.81-56.74,6.9-16,5.09-31,12.22-48.41,13.41-2.91.39-5.82.76-8.73,1.12-41.33,5-82.58,5.96-123.91-.38-13.97-2.14-29.29-18.85-43.28-22.79v-1.24c12.76,4.14,32.18,20.64,43.26,22.05,42.1,5.38,84.57,6.39,126.77,1.93,2.81-.3,5.62-.62,8.43-.97,32.88-8.04,64.88-17.2,99.11-22.52,2.41-.73,4.83-1.43,7.25-2.1,24.23-6.72,48.91-10.69,73.7-12.3,2.98-.19,5.95-.35,8.95-.47,13.43-.08,26.65.13,39.93.78,2.66.13,5.31.28,7.98.44,13.96,2.69,27.96.65,41.17,4.28,2.45.39,4.9.8,7.35,1.23,12.23,2.15,24.08,4.65,36.09,7.65v1.33Z"></path> <path class="cls-3-d6fb5a70-cbcc-44cb-ba98-2f3f3d15e799" d="M500.08,156.68c-9.7-2.45-19.8-4.65-29.58-6.41-1.96-.35-3.91-.69-5.89-1.02-19.19-1.49-38.19-3.53-57.69-4.58-2.72-.14-5.45-.26-8.17-.37-13.62-.54-27.21-.68-40.7,0-2.97.2-5.94.43-8.9.69-22.04,1.9-44.05,5.3-65.89,10.08-2.73.6-5.46,1.22-8.18,1.86-30.65,5.09-61.65,12.22-90.6,22.96-2.81.56-5.61,1.02-8.41,1.45-38.24,5.77-76.89,6.1-114.92,1.21-2.93-.38-5.85-.78-8.76-1.22-17.25-1.92-35.97-21.64-52.3-25.62v.97c16,4.07,32.34,20.62,49.79,23.01,2.76.42,5.52.8,8.28,1.16,35.92,4.67,72.07,5.39,107.92.38,2.9-.41,5.8-.85,8.7-1.33,32.65-9.73,64.65-19.91,98.9-23.77,2.68-.56,5.37-1.11,8.06-1.65,24.19-4.81,48.44-8.38,72.7-10.31,2.85-.23,5.71-.43,8.57-.61,13.09.06,26.28.09,39.43.35,2.63.05,5.26.11,7.87.18,20.11,1.64,41.11.63,60.94,5.21,1.89.35,3.78.71,5.67,1.08,7.56,1.5,15.61,3.35,23.15,5.32v.99Z"></path> <path class="cls-3-d6fb5a70-cbcc-44cb-ba98-2f3f3d15e799" d="M500.08,150.41c-5.6-1.34-12.43-2.74-18.06-3.91-1.88-.39-3.76-.77-5.66-1.14-24.93-4.73-49.93-4.73-74.81-6.67-2.62-.14-5.25-.28-7.87-.42-10.5-.57-20.95-1.19-31.3-1.94-2.9.07-5.76.22-8.62.41-26.18,1.68-52.25,5.79-77.95,12.67-2.57.69-5.14,1.4-7.7,2.15-28.67,6.39-56.67,13.51-85.46,20.74-2.92.5-5.84.95-8.77,1.37-32.14,4.6-64.56,6.06-96.65,3.61-2.92-.22-5.83-.48-8.74-.76-22.05-2.19-48.93-21.11-68.4-26.1v-1.26c22.88,5.22,44.34,24.06,67.63,27.02,2.87.33,5.73.63,8.6.9,31.57,2.96,63.33,2.12,94.9-4.04,2.87-.56,5.74-1.16,8.61-1.81,26.6-9.21,54.6-15.32,82.55-19.36,2.73-.56,5.46-1.11,8.2-1.65,27.33-5.38,54.61-9.59,81.87-11.86,2.87-.24,5.74-.46,8.63-.63,10.45.29,20.97.6,31.51.91,2.64.08,5.27.16,7.91.24,26.92,2.78,53.92.74,81,6.1,1.91.4,3.82.81,5.74,1.25,3.82.86,9.02,1.94,12.84,2.93v1.26Z"></path> <path class="cls-3-d6fb5a70-cbcc-44cb-ba98-2f3f3d15e799" d="M500.08,144.18c-1.82-.4-5.62-.99-7.45-1.39-1.83-.39-3.65-.78-5.48-1.15-29.72-5.09-58.72-6.11-89.1-9.36-2.78-.15-5.58-.28-8.37-.41-11.18-.51-22.32-.9-33.36-1.15-2.83.18-5.66.4-8.5.65-17.01,1.49-34.13,4.16-51.38,8.24-8.82,2.07-17.64,4.15-26.45,6.21-2.94.69-5.87,1.37-8.81,2.05-25.75,6-52.74,11.09-79.07,16.2-2.92.48-5.85.94-8.77,1.39-29.22,4.44-58.39,6.94-87.53,6.02-2.91-.09-5.83-.22-8.74-.38-25.47-1.87-55.51-22.13-76.98-26.91v-.98c26.47,5.54,51.34,25.93,78.49,27.4,2.7.22,5.4.41,8.11.57,29.75,1.78,59.75,0,89.75-7.13,2.88-.67,5.75-1.34,8.62-2.01,22.38-6.14,45.38-10.21,68.45-14.99,2.83-.56,5.67-1.12,8.5-1.66,28.33-5.44,56.5-9.82,84.63-12.29,2.96-.26,5.92-.5,8.88-.72,10.26.03,20.44.22,30.6.51,2.54.07,5.07.15,7.61.23,29.7,2.43,60.7,2.43,90.82,6.83,2.26.47,4.5.97,6.74,1.49,2.24.52,6.56,1.26,8.8,1.82v.94Z"></path> <path class="cls-3-d6fb5a70-cbcc-44cb-ba98-2f3f3d15e799" d="M500.08,136.64c-1.91-.48-6.5-1.23-8.43-1.67-33.23-4.52-67.23-6.56-100.1-9.44-2.64-.07-5.27-.14-7.91-.21-7.91-.2-15.8-.36-23.66-.49-2.87.16-5.74.34-8.6.55-38.3,2.76-76.69,9.08-115.36,16.93-2.76.56-5.53,1.13-8.29,1.71-11.3,1.69-22.3,6.78-33.25,7.21-2.78.62-5.56,1.25-8.34,1.88-5.56,1.26-11.13,2.53-16.71,3.81-26.1,5.96-52,7.99-77.69,7.04-2.86-.11-5.71-.25-8.56-.44-27-1.42-57.31-21.12-83.09-26.88v-1.16c27.05,6.62,55.34,23.47,84.59,26.77,2.9.18,5.8.33,8.71.44,26.14.99,52.49-.84,79.04-6.8,5.53-1.33,11.04-2.65,16.56-3.95,2.76-.65,5.51-1.29,8.26-1.93,8.18-3.28,17.18-3.28,24.73-5.59,2.74-.6,5.48-1.2,8.22-1.78,41.09-8.79,81.86-15.78,122.51-18.64,2.84-.2,5.68-.38,8.52-.53,7.8.21,15.59.38,23.37.54,2.59.05,5.19.11,7.78.16,33.04,2.19,66.04,5.25,99.24,9.63,1.92.43,6.56,1.19,8.46,1.67v1.16Z"></path> <path class="cls-3-d6fb5a70-cbcc-44cb-ba98-2f3f3d15e799" d="M500.08,130.82c-32.73-4.2-68.65-6.49-101.08-12.59-2.62-.14-5.26-.26-7.89-.37-10.54-.44-21.13-.68-31.85-.69-2.91.1-5.83.23-8.75.39-20.44,1.12-41.1,3.63-62.1,7.78-66.97,13.77-132.11,30.34-197.27,30.17-2.83,0-5.67-.05-8.49-.18-28.05-2.4-54.82-20.43-82.58-24.52v-.81c29,3.05,54.34,20.79,83.6,25.07,2.89.25,5.79.42,8.7.55,26.14,1.21,52.49-.46,79.04-6.87,60.79-15.19,120.66-26.96,180.41-30.28,2.85-.16,5.69-.3,8.54-.42,10.35.05,20.8.2,31.29.48,2.62.07,5.24.15,7.86.24,32.9,3.52,67.83,6.88,100.55,11.23v.81Z"></path> <path class="cls-3-d6fb5a70-cbcc-44cb-ba98-2f3f3d15e799" d="M500.08,124.97c-30.83-3.91-64.65-6.74-95.55-10.94-2.6-.18-5.24-.31-7.89-.41-7.93-.32-15.87-.51-23.86-.53-2.97.05-5.94.13-8.9.23-62.3,2.09-124.86,13.47-188.44,28.32-27.73,6.02-55.25,8.88-82.37,8.3-2.71-.06-5.42-.15-8.12-.28-25.4-1.83-47.91-15-73.68-20.92-2.4-.55-4.06-1.61-6.3-2.64-1.49-.69-3.76-1.07-4.86-1.14v-.66c1.54.27,3.67.63,5.07,1.29,2.31,1.08,4.06,2.12,6.54,2.71,24.27,5.74,45.75,16.46,70.52,18.23,2.83.08,5.66.52,8.49.62,65.55,2.34,130.75-17.23,197.72-28.94,26.62-4.58,52.97-6.87,79.13-7.21,2.91-.04,5.81-.05,8.72-.04,6.95.04,13.88.34,20.81.78,2.31.15,4.62.31,6.92.5,31.43,4.95,65.19,8.21,96.09,12.05v.66Z"></path> <path class="cls-3-d6fb5a70-cbcc-44cb-ba98-2f3f3d15e799" d="M500.08,120.08c-29.34-4.67-61.65-7.96-90.66-11.36-2.2-.14-4.41-.24-6.62-.33-6.63-.27-13.24-.45-19.76-.5-2.93,0-5.86.02-8.79.06-58.62.79-117.28,9.7-177.44,21.95-8.29,1.69-15.83-1.68-21.71,3.09-1.17.95-6.07,3.55-7.54,3.87-26.1,5.5-52.02,7.22-77.65,5.97-2.85-.14-5.69-.31-8.53-.53-21.94-2.7-42.28-13.89-64.71-18.47-2.78-.71-5.54-1.45-8.3-2.21-1.76-.49-6.67-1.3-8.27-1.54v-.83c2.78.65,5.56,1.28,8.35,1.91,2.78.63,5.57,1.24,8.37,1.84,22.29,4.4,41.63,15.59,64.78,17.74,2.83.23,5.66.44,8.49.61,25.51,1.52,51.21.25,77.08-5.5,1.46-.32,6.03-2.92,7.27-3.79,6-4.2,13.9-.88,22.25-2.61,63.03-13.08,124.86-22.52,186.55-22.54,2.94,0,5.87.02,8.81.06,2.56-.16,5.09-.21,7.59-.17,2.5.03,4.96.14,7.41.3,30.38,5.02,62.58,6.26,93.04,12.16v.83Z"></path> <path class="cls-3-d6fb5a70-cbcc-44cb-ba98-2f3f3d15e799" d="M500.08,111.88c-26.65-5.3-54.65-5.87-81.2-9.47-2.96-.2-5.93-.36-8.89-.51-65.24-3.13-130.46,4.44-196.85,16.7-5.65,1.04-10.85,6.45-16.52,7.53-7.9,1.5-19.72-2.63-24.51,1.9-4.24,4.01-8.99,5.83-15.19,7.01-26.5,5.09-53.27,2.69-79.89-1.62-2.66-.43-5.47-1.07-8.12-1.54-10.27-2.22-20.64-4.31-30.83-6.5-2.59-.57-4.52-1.8-7.08-2.37-8.92-2-16.58-9.17-30.89-11.12v-1.04c13.61,1.59,26.87,11.24,41.14,13.96,2.85.54,5.72,1.09,8.59,1.64s5.76,1.1,8.65,1.64c2.89.54,5.79,1.08,8.7,1.6,29.08,5.24,58.95,9.18,88.61,5.38,5.29-.68,12.01-3.89,15.57-8.06,4.37-5.13,16.81.49,25.21-1.27,5.68-1.19,10.9-6.7,16.56-7.83,66.55-13.31,131.92-20.29,197.19-16.92,2.97.15,5.93.33,8.9.52,27.22,1.45,53.93,5.03,80.87,9.33v1.04Z"></path> <path class="cls-3-d6fb5a70-cbcc-44cb-ba98-2f3f3d15e799" d="M500.08,107.48s-1.06-.17-3.13-.5c-2.06-.33-5.13-.8-9.13-1.41-17.4-3.63-35.4-3.63-52.21-7.63-2.91-.37-5.82-.7-8.73-1.01-43.63-4.54-87.04-2.34-130.47,2.41-9.59,1.05-20.17,5.13-29.77,5.11-3.2,0-37.14,3.2-51.14,1.17-36.93-4.97-72.48-3.76-107.98,1.66-15.44,2.36-29.78,8.34-45.35,9.57-5.1.08-10.19,0-15.27-.22-14.28-.6-32.63-5.68-46.83-9.16v-1.02c15.09,3.46,33.22,7.96,49.15,8.47,5.31.16,10.62.24,15.95.12,14.64-.53,27.92-6.4,42.25-8.77,19.3-3.2,39.64-5.06,57.58-5.69,13.32-.47,34.03,2.89,54.22,4.84,22.19,2.14,47.85-2.77,50.19-2.71,8.69.21,18.34-3.65,27-4.5,43.63-4.27,87.01-5.61,130.65-1.55,2.91.27,5.82.56,8.73.88,17.61,1.35,34.61,4.41,52.14,7.15,3.97.58,7,1.02,9.04,1.32,2.04.3,3.09.46,3.09.46v1.02Z"></path> <path class="cls-3-d6fb5a70-cbcc-44cb-ba98-2f3f3d15e799" d="M500.08,101.07s-15.09-.97-45.41-5.27c-62.73-9.08-124.87-7.58-187.8-.47-5.72.65-11.45,1.34-17.17,1.98-60.52-4.41-119.85-1.65-179.59,6.59-3.72.51-7.46.78-11.22.76-3.37-.02-6.74-.09-10.11-.19-15.21-.46-33.56-1.91-48.68-3.4v-1.32c16.07,1.09,32.49,2.82,48.56,3,5.36.06,10.72.07,16.09-.07,58.69-5.83,116.69-11.94,176.69-5.83,7,1.02,13-1.02,20.17-1.09,4.97-.56,9.95-1.1,14.91-1.61,59.61-6.1,118.78-8.05,178.57.7,30.38,4.32,45,4.9,45,4.9v1.32Z"></path> <path class="cls-3-d6fb5a70-cbcc-44cb-ba98-2f3f3d15e799" d="M500.08,94.47s-13.89,0-43.69-3.8c-46.82-7.34-93.47-7.49-140.17-4.46-2.75.18-5.49.37-8.24.57-10.55.91-21.55.91-32.98,2.83-2.52.25-5.04.5-7.56.75-2.52.26-5.04.52-7.57.78-67.44,1.63-133.44-5.49-199.43,3.16-3.33.17-6.67.33-10,.46-15.43.61-34.87,1.09-50.34-.29v-1.02c17.41.98,35.11.99,52.43.28,4.33-.18,8.66-.38,12.99-.6,62.92-10.54,124.92-3.41,187.45-2.31,2.6-.27,5.21-.53,7.81-.79,2.6-.26,5.21-.51,7.81-.76,13.84-1.59,28.84-2.61,42.6-3.39,2.84-.18,5.68-.34,8.52-.5,45.45-2.47,90.96-1.95,136.91,4.44,29.58,3.63,43.46,3.63,43.46,3.63v1.02Z"></path> <path class="cls-3-d6fb5a70-cbcc-44cb-ba98-2f3f3d15e799" d="M500.08,86.09s-13.89,0-41.51-2.34c-1.79-.23-3.57-.44-5.36-.65-8.78-.51-17.78-2.54-26.75-2.55-2.67-.2-5.34-.38-8.01-.55-24.02-.47-48.02-2.5-71.89-1.1-2.66.07-5.32.14-7.98.23-2.66.09-5.31.19-7.97.3-2.83.12-5.67.24-8.5.38-21.68.75-44.68,1.77-66.54,4.67-2.19.2-4.38.42-6.56.64-10.92,1.12-21.75,2.39-32.58,1.55-50-7.13-99-3.05-148.04-.96-4.9.03-9.81.07-14.71.1-14.72.11-29.45.24-44.24.35-5.88-.08-9.35-.07-9.35-.07v-1.32s3.47,0,9.4.05c15.47-.09,31.21.12,46.95.09,3.94,0,7.87-.03,11.81-.08,18.19-.2,35.18-3.26,53.18-4.27,40.31-2.86,79.74,5.91,119.23,3.26,2.63-.18,5.27-.4,7.9-.69,23.87-4.61,48.87-3.59,74.16-5.15,2.88-.06,5.75-.11,8.62-.15,2.69-.04,5.38-.07,8.07-.08,24.31-.22,47.8,1.41,71.91,1.99,2.68.07,5.36.12,8.06.15,13.04,1.68,27.04,1.68,39.59,2.78,2.27.17,4.44.33,6.53.48,22.91,1.61,34.58,1.61,34.58,1.61v1.32Z"></path> <path class="cls-3-d6fb5a70-cbcc-44cb-ba98-2f3f3d15e799" d="M500.08,79.48h-26.26c-21.4.07-43.4-5.02-64.7-4.9-2.41-.08-4.81-.16-7.21-.22-21.58-.55-42.84-.21-64.9-1.14-2.8.06-5.61.14-8.41.22-28.18-1.02-55.18,2.03-83.01,5.08-2.91.27-5.82.48-8.72.66-55.24,3.35-110.36-6.56-165.84-2.58-5.06.06-10.13.15-15.21.29-15.22.41-30.5,1.19-45.86,2.41-6.41.17-9.88.17-9.88.17v-1.02s3.47,0,9.88-.16c16.37-1.22,32.7-2.06,49.02-2.57,5.44-.17,10.87-.3,16.31-.4,51.42-4.45,103.54,4.17,155.33,3.32,2.88-.05,5.75-.12,8.63-.23,29.18-2.95,58.18-6,87.96-5.28,2.83-.09,5.66-.19,8.5-.28,21.54,1.2,43.8.35,65.75.61,2.44.03,4.88.07,7.31.13,21.66-.16,42.66,4.93,65.06,4.87,3.32,0,6.37,0,9.11,0h17.15v1.02Z"></path> <path class="cls-3-d6fb5a70-cbcc-44cb-ba98-2f3f3d15e799" d="M500.08,73.07h-9.84c-2.12,0-4.57,0-7.31-.01-26.51.37-54.51-5.73-81.47-2.99-2.44.02-4.88.04-7.33.05-19.57.08-39.29-.29-58.46-1.39-2.84.06-5.68.14-8.51.18-29.73-1.58-60.73,1.48-90.87,4.68-2.77.1-5.54.18-8.3.22-47.01.69-93.33-7.34-140.53-4.84-5.14.06-10.28.16-15.43.3-20.59.57-41.25,1.82-62.08,3.69-6.39.12-9.87.12-9.87.12v-1.32s3.47,0,9.86-.11c20.71-2.4,41.3-3.52,61.81-3.86,5.13-.08,10.25-.12,15.37-.11,46.56-.33,93.74,3.28,140.4,4.48,2.74.07,5.49.13,8.23.18,28.11-2.73,56.5-6.38,85.99-4.86,2.68.14,5.37.32,8.07.55,21.07.22,41.87,1.19,62.75,1.37,2.61.02,5.22.03,7.83.02,9.02-.05,18.02-1.07,27.02-.05,21,0,42,2.04,62.82,2.39h9.84v1.32Z"></path> <path class="cls-3-d6fb5a70-cbcc-44cb-ba98-2f3f3d15e799" d="M500.08,66.47h-4.46c-34.2-.16-67.2-2.2-101.12-.96-2.68,0-5.36-.02-8.04-.04-18.75-.15-37.46-.72-56.25-2.89-2.73-.11-5.46-.2-8.18-.27-29.95-.73-59.37,1.28-89.73,4.86-2.74.07-5.48.12-8.23.14-41.15.3-82.4-5.1-123.66-5.56-5.03-.15-10.05-.25-15.07-.3-25.12-.24-50.23.93-75.4,4.96-6.38.07-9.85.07-9.85.07v-1.02s3.47,0,9.85-.06c22.16-2.75,44.27-3.9,66.38-4.1,5.53-.05,11.05-.04,16.58.02,42.68-1.03,86.65,5.17,129.78,4.6,2.87-.04,5.75-.1,8.61-.21,29.46-3.17,59.64-6.86,89.12-5.26,2.68.15,5.36.33,8.02.57,19.24,1.31,38.49,3.24,57.65,4.1,2.74.12,5.47.22,8.21.3,34.12-1.14,67.12-.12,101.32.04h4.46v1.02Z"></path> <path class="cls-3-d6fb5a70-cbcc-44cb-ba98-2f3f3d15e799" d="M500.08,58.09s-1.54,0-4.46,0c-1.19-.03-2.37-.07-3.56-.1-1.19-.03-2.37-.06-3.55-.1-3.66-.55-7.27-.84-10.85-.97-1.19-.04-2.38-.07-3.57-.08-4.67.49-8.67.49-14.12.37-1.17.05-2.34.11-3.51.16-5.85.26-11.69.46-17.61.19-1.18.01-2.36.03-3.54.05-12.98.2-25.96.64-38.95,1.35-2.75-.02-5.49-.05-8.24-.11-19.23-.38-38.52-1.61-57.85-2.89-2.65-.16-5.31-.29-7.97-.41-4.87-.21-9.74-.36-14.62-.44s-9.76-.11-14.65-.06c-4.89.04-9.78.14-14.68.3-14.69.47-29.44,1.46-44.25,2.89-1.69.08-3.38.15-5.06.23-3.37.15-6.75.3-10.12.45-37.5,2.32-74.5-5.83-112.5-7.87-29-1.02-57,6.11-84.76,6.57-13.77.48-21.58.48-21.58.48v-1.32s7.81,0,21.57-.45c65.77-11.39,131.77-.19,199.2,1.27,3.35-.14,6.69-.28,10.04-.43,1.67-.08,3.35-.15,5.02-.24,12.71-1.6,25.33-2.71,37.94-3.31,2.52-.12,5.04-.22,7.56-.3,10-.18,20-.18,30.29.05,2.53.1,5.06.21,7.6.35,2.54.13,5.08.29,7.62.46,2.85.04,5.71.08,8.57.22,18.03,3.39,36.1,4.46,54.26,4.29,2.59-.02,5.19-.07,7.79-.15,12.91-.94,25.69-1.67,38.45-2.11,1.16-.04,2.32-.08,3.48-.11,1.14-.07,2.28-.14,3.43-.21s2.3-.14,3.46-.2c12.05-1.56,23.05.44,35.14-.18,1.16.09,2.32.2,3.47.32s2.3.25,3.45.4c1.18.06,2.36.11,3.53.16,1.18.05,2.36.11,3.54.17,2.99,0,4.57,0,4.57,0v1.32Z"></path> <path class="cls-3-d6fb5a70-cbcc-44cb-ba98-2f3f3d15e799" d="M500.08,52.05h-4.57c-.89-.03-1.77-.05-2.66-.08s-1.78-.05-2.66-.07c-16.76-1.57-34.76-1.57-51.86.07-1.19.03-2.38.05-3.57.08-13.1.32-26.13.79-38.94,1.3-2.73.04-5.45.06-8.18.07-16.67.03-33.24-.65-50.02-2.24-2.4-.23-4.8-.47-7.21-.74-18.98.63-38.98-1.4-58.2.14-2.75.09-5.5.2-8.25.32-8.23.37-16.42.91-24.51,1.69-1.67.07-3.34.13-5.01.18-3.34.11-6.68.22-10.02.33-11.99-.04-22.99.97-34.99-1.06-57-7.13-112-7.13-167.79-.33-13.74.33-21.55.33-21.55.33v-1.02s7.81,0,21.52-.16c34.83-1.87,69.83-7.98,104.83-4.93,33,2.04,65,6.11,98.45,6.01,3.35-.08,6.7-.17,10.05-.26,1.67-.04,3.35-.09,5.03-.15,8.24-.77,16.53-1.3,24.83-1.66,2.77-.12,5.53-.23,8.3-.32,19.34-2.56,39.34-.52,58.02.2,2.53.11,5.06.23,7.59.37,17.75.97,35.66,2.58,53.32,2.69,2.52.02,5.04,0,7.55-.06,11.87-1.45,23.76-2.04,35.69-2.22,1.19-.02,2.39-.03,3.58-.04,16.6-1.17,34.6-1.17,51.28.52.91,0,1.81,0,2.72,0,1.57,0,2.9,0,3.98,0h3.28v1.02Z"></path> <path class="cls-3-d6fb5a70-cbcc-44cb-ba98-2f3f3d15e799" d="M500.08,45.65s-2.54,0-7.25,0c-3.3-.14-6.63-.25-9.96-.34-1.11-.03-2.22-.05-3.34-.08-10.1.11-19.1.11-29.52-.07-1.05.01-2.1.03-3.14.04-2.71.02-5.43.05-8.14.09-10.86.16-21.77.51-32.75,1.1-2.67.11-5.34.21-8.02.29-1.17.03-2.34.07-3.52.09-1.17.03-2.35.05-3.52.08-7.49.49-14.49,1.49-21.22,0-1.18-.03-2.37-.06-3.55-.1-5.92-.19-11.85-.51-17.79-1.01-2.38-.2-4.76-.43-7.14-.68-26.8-1.08-52.8-3.12-79.88-.52-2.33.09-4.66.21-6.97.37-2.32.16-4.62.37-6.92.63-2.93.05-5.87.1-8.8.14-2.93.05-5.86.09-8.79.13-6.7.1-13.4.18-20.08.17-63.35-5.12-125.35-8.17-188.19-.41-13.69.08-21.5.08-21.5.08v-1.32s7.81,0,21.5-.07c62.85-6.46,124.85-5.44,188.19.83,6.69.03,13.39-.01,20.09-.08,2.93-.03,5.86-.06,8.79-.1,2.93-.03,5.86-.07,8.8-.11,2.3-.09,4.6-.17,6.92-.24,2.32-.08,4.64-.14,6.97-.22,27.08-1.4,53.08-1.4,79.88-.26,2.38.16,4.76.32,7.13.47,3.56.22,7.13.43,10.68.6,1.19.06,2.37.12,3.56.17,11.83,0,23.83,3.01,35.36.47.67-.02,1.34-.04,2.01-.06,2.01-.06,4.01-.14,6.02-.24,8.23-1.09,16.43-1.57,24.59-1.74,2.72-.05,5.44-.07,8.16-.07,20.7.27,40.7.27,61.35.63v1.32Z"></path> <path class="cls-3-d6fb5a70-cbcc-44cb-ba98-2f3f3d15e799" d="M500.08,38.11c-23.69,1.78-47.67-.26-71.44-.23-2.45.01-4.9.03-7.34.04-2.44.02-4.88.04-7.31.06-2,0-3.99,0-5.99.01-.67,0-1.33,0-2,0-16.56,1.32-32.56,1.32-49.19.29-1.17-.01-2.34-.03-3.51-.04-1.17-.01-2.34-.03-3.51-.05-2.67-.05-5.34-.13-8.01-.26-30.34-3.15-61.34-2.13-90.88-.09-1.84,0-3.69,0-5.53,0-5.53,0-11.04.01-16.55.02-6.88.01-13.75.03-20.59.01-63.78-5.18-126.78-4.16-190.98.13-10.97,0-17.14.09-17.15.09v.98s6.17-.05,17.15-.05c63.2-4.3,127.2-5.31,189.92-.11,6.85.03,13.72,0,20.61-.01,6.2-.02,12.41-.03,18.63-.04,2.07,0,4.15,0,6.22,0,29.8-2.03,58.8-3.05,88.94.1,2.69.12,5.37.2,8.06.27,1.18.03,2.35.06,3.53.08,1.18.03,2.35.05,3.53.08,16.74,1.93,32.74,1.93,49.3.02.67-.01,1.33-.02,2-.04,2-.04,4-.08,6-.13,4.49-.09,8.96-.16,13.41-.21,2.23-.03,4.45-.05,6.68-.07,22.34-.11,44.33,1.93,66.01.12v-.98Z"></path> <path class="cls-3-d6fb5a70-cbcc-44cb-ba98-2f3f3d15e799" d="M500.08,30.08c-25.76,4.7-51.71-1.38-77.64-.73-1.86,0-3.75,0-5.67,0h-10.87c-16.48.99-32.48.99-48.9,0-1.26,0-2.53,0-3.81,0-2.01-.02-4.04-.04-6.07-.08-31.71-3.62-63.7-3.62-96.11.02-2.19.03-4.38.04-6.56.06h-13.11c-6.23,0-12.45,0-18.64,0-61.28-2.74-121.28-3.76-182.24-.04-6.38.04-11.88.04-16.38.04-9,0-14,.74-14,.74v1.18s5-.6,14-.6c4.5,0,10,0,16.38-.06,60.96-5.02,120.96-1.97,182.24.06,6.19,0,12.41,0,18.64,0h13.11c2.19-.02,4.37-.03,6.56-.06,32.41-3.95,64.41-3.95,96.11-.02,2.03.04,4.06.06,6.07.08.96,0,1.91,0,2.86,0,16.37,1.66,33.37.66,49.29,0h17.09c25.93,1.08,51.89,3.11,77.64.61v-1.2Z"></path> <path class="cls-3-d6fb5a70-cbcc-44cb-ba98-2f3f3d15e799" d="M500.08,24.19c-25.78,2.46-50.72,1.45-76.27-1.11-1.84-.03-3.7-.04-5.58-.04h-12.89c-16.91.3-32.91.3-49.73,0-.97,0-1.94,0-2.91,0-.97,0-1.95,0-2.93-.01-28.72-2-57.2-2.38-85.63-1.11-2.19.1-4.37.2-6.56.32-27.14,2.12-55.14.12-82.33-.13-2.07-.05-4.15-.1-6.22-.15-18.65-.44-37.24-.78-55.82-.86-2.75-.01-5.5-.02-8.26-.02-10.52,1.53-22.52.51-33.05.34-2.76.06-5.51.13-8.27.21-11.03.31-22.09.77-33.17,1.42-6.37,0-11.87,0-16.37,0C5.09,23.03.09,24.2.09,24.2v.96s5-1.1,14-1.1c4.5,0,10,0,16.37-.01,13.86-.81,27.66-1.32,41.45-1.62,2.76-.06,5.51-.11,8.27-.15,5.26.32,11.26.32,16.52-.17,2.75-.01,5.51-.02,8.26-.02,22.36,0,44.72.42,67.18.96,2.25.05,4.49.11,6.74.16,26.55.14,52.55,3.14,79.08.33,2.31-.15,4.62-.29,6.93-.41,27.68-1.49,55.07-1.2,82.25.88,1.02.02,2.03.03,3.04.04s2.02.01,3.03.02c17.23.29,33.22.29,50.48,0,1.12,0,2.23,0,3.34,0h9.76c1.91,0,3.8,0,5.67.02,25.92,2.58,51.85,3.6,77.63,1.09v-.97Z"></path> <path class="cls-3-d6fb5a70-cbcc-44cb-ba98-2f3f3d15e799" d="M500.08,17.51c-7.81,1.47-15.71,2-23.66,2-1.13,0-2.27-.01-3.41-.03-6.59-.14-13.59-.14-20.48-1.11-1.14-.09-2.27-.18-3.41-.27-10.22-.83-20.39-1.72-30.37-1.78h-9.94c-1.8,0-3.62,0-5.46,0-17.44.13-34.93.15-52.37.05-2.49-.01-4.98-.03-7.47-.05-24.43-2.27-48.8-1.51-73.19-.62-2.22.08-4.43.17-6.66.27-32.25,1.37-63.24,2.37-95.45-.44-2.09-.06-4.18-.1-6.27-.15-8.36-.18-16.7-.31-25.04-.39-2.72-.03-5.45-.05-8.17-.07-24.32-1.5-49.32.54-73.61.66-2.74.07-5.47.14-8.21.22-5.48.15-10.97.33-16.46.52H14.09C5.09,16.32.09,17.52.09,17.52v1.34s5-1.22,14-1.22c4.5,0,10,0,16.37,0,5.5-.12,10.98-.24,16.46-.36,2.74-.06,5.48-.11,8.21-.17,22.29-1.66,43.29-.64,65.44-.8,2.72,0,5.44,0,8.17,0,10.89.02,21.78.13,32.7.33,2.18.04,4.37.09,6.55.14,32.43,3.55,64.43,1.55,96.36.36,2.25-.09,4.5-.16,6.74-.23,24.68-.73,49.25-.99,74.62.72,2.34-.02,4.68-.03,7.03-.05,16.43-.1,33.04-.08,49.51.05,1.75,0,3.48,0,5.19,0h10.08c1.64,0,3.27,0,4.88.01,25.97.85,51.92,5.92,77.68,1.22v-1.36Z"></path> <path class="cls-3-d6fb5a70-cbcc-44cb-ba98-2f3f3d15e799" d="M500.08,8.1c-1.17.04-2.34.07-3.52.1-1.17.03-2.35.05-3.53.08-16.61,2.57-32.61.57-50-.36-1.19-.02-2.37-.05-3.55-.07-5.91-.12-11.77-.23-17.56-.31-1.67,0-3.37,0-5.08,0-21.93,1.09-43.6,1.31-65.17.66-2.7-.08-5.39-.18-8.09-.28-24.99-.9-49.87-1.03-74.69-.26-2.07.06-4.14.13-6.2.21-29.26,1.99-59.26.99-87.96-.32-1.71,0-3.41,0-5.11,0h-29.88c-2.03,0-4.04,0-6.04,0-30.27-.67-61.27-.67-91.48,0h-7.54C13.01,7.53.09,8.1.09,8.1v1.17s12.92-.72,34.59-.72h7.54c30.21-.68,61.21-.68,91.48,0,2,0,4.02,0,6.04,0h29.88c30.81.29,61.81,2.29,93.07.27,2.07-.07,4.14-.14,6.2-.2,24.82-.72,49.7-.63,74.69.03,2.69.03,5.39.05,8.09.07,21.57.16,43.24.11,65.17-.17h5.08c5.79.08,11.65.24,17.56.43,1.18.04,2.37.08,3.55.12,17.39,2.75,33.39,1.75,50,.54,1.18-.05,2.36-.1,3.53-.16,1.17-.06,2.35-.13,3.52-.2v-1.17Z"></path> <path class="cls-3-d6fb5a70-cbcc-44cb-ba98-2f3f3d15e799" d="M500.08,1.09V.47h-6.01c2,.17,4,.37,6.01.62Z"></path> <path class="cls-3-d6fb5a70-cbcc-44cb-ba98-2f3f3d15e799" d="M422.64.47c-2.09.2-4.18.39-6.27.56-29.09,2.34-58.88,2.9-87.56-.56h-53.16c-31.59,3.76-63.82,3.76-94.7,0h-65.32c6.05.29,12.08.68,18.08,1.16,1.99.03,4.01.03,6.03.04h34.25c1.95,0,3.91,0,5.87,0,31.56,2.61,64.56,3.63,96.87,0,2.03,0,4.05,0,6.07,0h38.67c2.11,0,4.22,0,6.31,0,29,3.33,59.14,2.75,88.57.62,2.68-.19,5.35-.4,8.02-.64,2.5-.04,5.02-.12,7.54-.22,8.4-.08,16.87-.55,25.37-.96h-34.66Z"></path> <path class="cls-3-d6fb5a70-cbcc-44cb-ba98-2f3f3d15e799" d="M.09.47v.62s12.92.58,34.59.58c2.41,0,4.93,0,7.55-.02,6.05-.49,12.14-.88,18.24-1.18H.09Z"></path> <path class="cls-1-d6fb5a70-cbcc-44cb-ba98-2f3f3d15e799" d="M89.5,125.5c19.15,1.9,38.58,2.92,57.7.51,12.77-1.75,24.95-6.57,37.85-7.66,2.13-.16,4.36-.43,6.45.15-2.11-.36-4.28.09-6.38.38-11.7,1.89-22.8,6.37-34.43,8.54-20.25,3.34-41.12,1.86-61.19-1.92h0Z"></path> <path class="cls-1-d6fb5a70-cbcc-44cb-ba98-2f3f3d15e799" d="M106,118.04c12.64.13,25.43,1,37.91-1.19,3.23-.59,6.12-2.19,9.46-3.1,5.25-1.47,10.84-1.92,16.13-.82-6.04-.28-11.99.81-17.51,3-2.46,1.01-5.02,2.28-7.67,2.81-12.65,2.41-25.71,1.29-38.32-.7h0Z"></path> <path class="cls-1-d6fb5a70-cbcc-44cb-ba98-2f3f3d15e799" d="M56.5,121.5c6.46.26,13.06.38,19.42-.85,6.16-1.7,12.43-4.2,18.61-5.86,37.56-11.02,78.01-11.73,116.02-2.46,5.11.25,10.93.98,15.95-.82-2.47,1.11-5.26,1.18-7.93,1.32-2.71.09-5.41.04-8.12-.15-12.67-2.89-25.63-4.47-38.58-5.34-25.95-1.76-52.11,1.15-77.15,8.12-3.13.87-6.25,1.8-9.35,2.78-2.62.8-6.66,2.3-9.36,2.84-6.45,1.1-13.02.83-19.51.42h0Z"></path> <path class="cls-4-d6fb5a70-cbcc-44cb-ba98-2f3f3d15e799" d="M333.5,230.5c32.47-9.27,67.14-10.22,100.44-5.31,2.57.28,6.5,1.14,9.07,1.62,1.44.28,5.38,1.05,6.78,1.32,1.66.4,9.39,2.4,11.16,2.84,5.24,1.28,12.35,3.9,17.55,5.53-5.31-1.48-12.4-3.88-17.68-5.05-1.8-.43-9.56-2.29-11.17-2.66-1.39-.25-5.33-.96-6.78-1.22-2.58-.44-6.48-1.25-9.05-1.52-33.27-4.68-67.66-3.79-100.31,4.45h0Z"></path> <path class="cls-4-d6fb5a70-cbcc-44cb-ba98-2f3f3d15e799" d="M344.5,236.5c34.73,6.79,70.83,9.67,105.98,4.65,4.99-.56,10.08-1.79,15.02-2.65-3.68.99-7.39,1.99-11.1,2.89-16.18,3.42-32.98,4.69-49.5,4.13-20.38-.72-40.77-3.45-60.4-9.02h0Z"></path> <path class="cls-4-d6fb5a70-cbcc-44cb-ba98-2f3f3d15e799" d="M357.5,232.5c14.69-1.76,29.49-3.37,44.31-2.26,12.68,2.15,25.41,4.67,38.29,5.02,1.82-.05,3.71-.01,5.4-.77-1.62.95-3.55,1.11-5.38,1.3-12.92.79-25.88-1.46-38.55-3.57-12.69-1.15-31.16.11-44.07.27h0Z"></path> </g> </pattern> </g> <g id="pattern-definition-fba14661-1da0-4177-9c02-7f920de48aef"> <pattern id="decor-horizontal-75a8b304-bbac-4e9a-bc11-fcdc005c3255" x="0" y="0" width="200" height="85" patternUnits="userSpaceOnUse"> <rect x="0" y="0" width="200" height="85" fill="url(#walnut)"></rect> </pattern> <pattern id="decor-vertical-75a8b304-bbac-4e9a-bc11-fcdc005c3255" x="0" y="0" width="200" height="85" patternUnits="userSpaceOnUse" patternTransform="rotate(90)"> <rect x="0" y="0" width="200" height="85" fill="url(#walnut)"></rect> </pattern> </g> <pattern id="decor-horizontal-75a8b304-bbac-4e9a-bc11-fcdc005c3255" x="0" y="0" width="200" height="85" patternUnits="userSpaceOnUse"> <rect x="0" y="0" width="200" height="85" fill="url(#walnut)"></rect> </pattern><pattern id="decor-horizontal-75a8b304-bbac-4e9a-bc11-fcdc005c3255" x="0" y="0" width="200" height="85" patternUnits="userSpaceOnUse"> <rect x="0" y="0" width="200" height="85" fill="url(#walnut)"></rect> </pattern><pattern id="decor-vertical-75a8b304-bbac-4e9a-bc11-fcdc005c3255" x="0" y="0" width="200" height="85" patternUnits="userSpaceOnUse" patternTransform="rotate(90)"> <rect x="0" y="0" width="200" height="85" fill="url(#walnut)"></rect> </pattern><pattern id="decor-vertical-75a8b304-bbac-4e9a-bc11-fcdc005c3255" x="0" y="0" width="200" height="85" patternUnits="userSpaceOnUse" patternTransform="rotate(90)"> <rect x="0" y="0" width="200" height="85" fill="url(#walnut)"></rect> </pattern><linearGradient id="connection-line-color-75a8b304-bbac-4e9a-bc11-fcdc005c3255"> <stop stop-color="#000000" offset="0"></stop> </linearGradient><linearGradient id="connection-line-color-75a8b304-bbac-4e9a-bc11-fcdc005c3255"> <stop stop-color="#000000" offset="0"></stop> </linearGradient><linearGradient id="connection-line-color-75a8b304-bbac-4e9a-bc11-fcdc005c3255"> <stop stop-color="#000000" offset="0"></stop> </linearGradient><linearGradient id="connection-line-color-75a8b304-bbac-4e9a-bc11-fcdc005c3255"> <stop stop-color="#000000" offset="0"></stop> </linearGradient><linearGradient id="connection-line-color-75a8b304-bbac-4e9a-bc11-fcdc005c3255"> <stop stop-color="#000000" offset="0"></stop> </linearGradient><pattern id="decor-horizontal-75a8b304-bbac-4e9a-bc11-fcdc005c3255" x="0" y="0" width="200" height="85" patternUnits="userSpaceOnUse"> <rect x="0" y="0" width="200" height="85" fill="url(#walnut)"></rect> </pattern><linearGradient id="connection-line-color-75a8b304-bbac-4e9a-bc11-fcdc005c3255"> <stop stop-color="#000000" offset="0"></stop> </linearGradient><linearGradient id="connection-line-color-75a8b304-bbac-4e9a-bc11-fcdc005c3255"> <stop stop-color="#000000" offset="0"></stop> </linearGradient><linearGradient id="connection-line-color-75a8b304-bbac-4e9a-bc11-fcdc005c3255"> <stop stop-color="#000000" offset="0"></stop> </linearGradient><pattern id="decor-vertical-75a8b304-bbac-4e9a-bc11-fcdc005c3255" x="0" y="0" width="200" height="85" patternUnits="userSpaceOnUse" patternTransform="rotate(90)"> <rect x="0" y="0" width="200" height="85" fill="url(#walnut)"></rect> </pattern><linearGradient id="connection-line-color-75a8b304-bbac-4e9a-bc11-fcdc005c3255"> <stop stop-color="#000000" offset="0"></stop> </linearGradient><linearGradient id="connection-line-color-75a8b304-bbac-4e9a-bc11-fcdc005c3255"> <stop stop-color="#000000" offset="0"></stop> </linearGradient><linearGradient id="connection-line-color-75a8b304-bbac-4e9a-bc11-fcdc005c3255"> <stop stop-color="#000000" offset="0"></stop> </linearGradient><pattern id="decor-vertical-75a8b304-bbac-4e9a-bc11-fcdc005c3255" x="0" y="0" width="200" height="85" patternUnits="userSpaceOnUse" patternTransform="rotate(90)"> <rect x="0" y="0" width="200" height="85" fill="url(#walnut)"></rect> </pattern><linearGradient id="connection-line-color-75a8b304-bbac-4e9a-bc11-fcdc005c3255"> <stop stop-color="#000000" offset="0"></stop> </linearGradient><linearGradient id="connection-line-color-75a8b304-bbac-4e9a-bc11-fcdc005c3255"> <stop stop-color="#000000" offset="0"></stop> </linearGradient><linearGradient id="connection-line-color-75a8b304-bbac-4e9a-bc11-fcdc005c3255"> <stop stop-color="#000000" offset="0"></stop> </linearGradient><pattern id="glass-pattern-75a8b304-bbac-4e9a-bc11-fcdc005c3255" width="100%" height="100%" viewBox="0 0 836 1027"> <g opacity="0.55"> <rect x="489.643" y="3270.69" width="3187.01" height="4478.12" transform="rotate(-143.13 489.643 3270.69)" fill="url(#glass-color-5f1da6f7-18dc-4796-a7da-3ac67f31deef)" style="mix-blend-mode:multiply"></rect> <rect x="489.643" y="3270.69" width="3187.01" height="4478.12" transform="rotate(-143.13 489.643 3270.69)" fill="#64BEF0" fill-opacity="0.25"></rect> </g> </pattern><pattern id="glass-pattern-75a8b304-bbac-4e9a-bc11-fcdc005c3255" width="100%" height="100%" viewBox="0 0 836 1027"> <g opacity="0.55"> <rect x="489.643" y="3270.69" width="3187.01" height="4478.12" transform="rotate(-143.13 489.643 3270.69)" fill="url(#glass-color-5f1da6f7-18dc-4796-a7da-3ac67f31deef)" style="mix-blend-mode:multiply"></rect> <rect x="489.643" y="3270.69" width="3187.01" height="4478.12" transform="rotate(-143.13 489.643 3270.69)" fill="#64BEF0" fill-opacity="0.25"></rect> </g> </pattern><pattern id="glass-pattern-75a8b304-bbac-4e9a-bc11-fcdc005c3255" width="100%" height="100%" viewBox="0 0 836 1027"> <g opacity="0.55"> <rect x="489.643" y="3270.69" width="3187.01" height="4478.12" transform="rotate(-143.13 489.643 3270.69)" fill="url(#glass-color-5f1da6f7-18dc-4796-a7da-3ac67f31deef)" style="mix-blend-mode:multiply"></rect> <rect x="489.643" y="3270.69" width="3187.01" height="4478.12" transform="rotate(-143.13 489.643 3270.69)" fill="#64BEF0" fill-opacity="0.25"></rect> </g> </pattern><pattern id="glass-pattern-75a8b304-bbac-4e9a-bc11-fcdc005c3255" width="100%" height="100%" viewBox="0 0 836 1027"> <g opacity="0.55"> <rect x="489.643" y="3270.69" width="3187.01" height="4478.12" transform="rotate(-143.13 489.643 3270.69)" fill="url(#glass-color-5f1da6f7-18dc-4796-a7da-3ac67f31deef)" style="mix-blend-mode:multiply"></rect> <rect x="489.643" y="3270.69" width="3187.01" height="4478.12" transform="rotate(-143.13 489.643 3270.69)" fill="#64BEF0" fill-opacity="0.25"></rect> </g> </pattern></defs> </svg>