<svg xmlns:xlink="http://www.w3.org/1999/xlink" xmlns="http://www.w3.org/2000/svg" fill="none" height="226" viewBox="0 0 102 226" width="102">
<path d="M8.85059 10.3086H92.8506V54.3086H8.85059V10.3086Z" fill="#BDD2ED"/>
<path d="M8.85059 10.3086H92.8506V54.3086H8.85059V10.3086Z" fill="url(#paint0_linear_413_114)"/>
<path d="M8.85059 62.3086H92.8506V216.309H8.85059V62.3086Z" fill="#BDD2ED"/>
<path d="M8.85059 62.3086H92.8506V216.309H8.85059V62.3086Z" fill="url(#paint1_linear_413_114)"/>
<path d="M1 1H101V225H1V1Z" stroke="black" stroke-miterlimit="3.8637" stroke-width="2"/>
<path d="M9 62.3199H93V216.32H9V62.3199Z" stroke="black" stroke-miterlimit="3.8637" stroke-width="2"/>
<path d="M59.506 31H42.496M9 9H93V53H9V9ZM51 124.82V153.82V124.82ZM65.5 139.32H36.5H65.5ZM51 22.494V39.504V22.494Z" stroke="black" stroke-miterlimit="3.8637" stroke-width="2"/>
<defs>
<linearGradient gradientUnits="userSpaceOnUse" id="paint0_linear_413_114" x1="50.8506" x2="50.8506" y1="28.4529" y2="54.3086">
<stop stop-color="white"/>
<stop offset="1" stop-color="white" stop-opacity="0"/>
</linearGradient>
<linearGradient gradientUnits="userSpaceOnUse" id="paint1_linear_413_114" x1="50.8506" x2="50.8506" y1="125.814" y2="216.309">
<stop stop-color="white"/>
<stop offset="1" stop-color="white" stop-opacity="0"/>
</linearGradient>
</defs>
</svg>