<svg xmlns:xlink="http://www.w3.org/1999/xlink" xmlns="http://www.w3.org/2000/svg" fill="none" height="226" viewBox="0 0 102 226" width="102">
<path d="M14.7607 15.1218H86.7607V47.1218H14.7607V15.1218Z" fill="#BDD2ED"/>
<path d="M14.7607 15.1218H86.7607V47.1218H14.7607V15.1218Z" fill="url(#paint0_linear_413_158)"/>
<path d="M18 71H84V207H18V71Z" fill="#BDD2ED"/>
<path d="M18 71H84V207H18V71Z" fill="url(#paint1_linear_413_158)"/>
<path d="M1 1H101V225H1V1ZM9 62.3199H93V216.32H9V62.3199Z" stroke="black" stroke-miterlimit="3.8637" stroke-width="2"/>
<path d="M9 9H93V53H9V9Z" stroke="black" stroke-miterlimit="3.8637" stroke-width="2"/>
<path d="M18 71.14H84V207.14H18V71.14Z" stroke="black" stroke-miterlimit="3.8637" stroke-width="2"/>
<path d="M83.76 207.218L50.546 71.082L18.05 207.56M18.052 72.6L83.484 138.138L18.736 205.6L18.052 72.6Z" stroke="black" stroke-miterlimit="3.8637" stroke-width="2"/>
<path d="M15.152 46.8539L50.998 15.608L87.04 46.9399M14.962 15H86.962V47H14.962V15Z" stroke="black" stroke-miterlimit="3.8637" stroke-width="2"/>
<path d="M84.914 132.74C84.914 131.988 85.332 131.376 85.848 131.376H91.178C91.694 131.376 92.112 131.986 92.112 132.74V143.568C92.112 144.32 91.694 144.93 91.178 144.93H85.848C85.332 144.93 84.914 144.32 84.914 143.568V132.74Z" fill="white" stroke="black" stroke-linejoin="bevel" stroke-miterlimit="3.8637" stroke-width="3.6488"/>
<path d="M87.242 144.522H89.782V163.002H87.242V144.522Z" fill="#020405" stroke="black" stroke-miterlimit="3.8637" stroke-width="0.4664"/>
<path d="M54.99 9.26196C55.484 9.26196 55.884 9.53598 55.884 9.87598V13.376C55.884 13.716 55.484 13.99 54.99 13.99H47.878C47.384 13.99 46.984 13.716 46.984 13.376V9.87598C46.984 9.53598 47.384 9.26196 47.878 9.26196H54.99Z" fill="white" stroke="black" stroke-linejoin="bevel" stroke-miterlimit="3.8637" stroke-width="2.3962"/>
<path d="M47.252 10.792V12.46H35.116V10.792H47.252Z" fill="#020405" stroke="black" stroke-miterlimit="3.8637" stroke-width="0.3062"/>
<defs>
<linearGradient gradientUnits="userSpaceOnUse" id="paint0_linear_413_158" x1="50.7607" x2="50.7607" y1="28.3177" y2="47.1218">
<stop stop-color="white"/>
<stop offset="1" stop-color="white" stop-opacity="0"/>
</linearGradient>
<linearGradient gradientUnits="userSpaceOnUse" id="paint1_linear_413_158" x1="51" x2="51" y1="127.082" y2="207">
<stop stop-color="white"/>
<stop offset="1" stop-color="white" stop-opacity="0"/>
</linearGradient>
</defs>
</svg>