<svg xmlns:xlink="http://www.w3.org/1999/xlink" xmlns="http://www.w3.org/2000/svg" fill="none" height="226" viewBox="0 0 102 226" width="102">
<path d="M87.2393 15.1218H15.2393V47.1218H87.2393V15.1218Z" fill="#BDD2ED"/>
<path d="M87.2393 15.1218H15.2393V47.1218H87.2393V15.1218Z" fill="url(#paint0_linear_413_196)"/>
<path d="M84 71H18V207H84V71Z" fill="#BDD2ED"/>
<path d="M84 71H18V207H84V71Z" fill="url(#paint1_linear_413_196)"/>
<path d="M101 1H1V225H101V1ZM93 62.3199H9V216.32H93V62.3199Z" stroke="black" stroke-miterlimit="3.8637" stroke-width="2"/>
<path d="M93 9H9V53H93V9Z" stroke="black" stroke-miterlimit="3.8637" stroke-width="2"/>
<path d="M84 71.14H18V207.14H84V71.14Z" stroke="black" stroke-miterlimit="3.8637" stroke-width="2"/>
<path d="M18.24 207.218L51.454 71.082L83.95 207.56M83.948 72.6L18.516 138.138L83.264 205.6L83.948 72.6Z" stroke="black" stroke-miterlimit="3.8637" stroke-width="2"/>
<path d="M86.848 46.8539L51.002 15.608L14.96 46.9399M87.038 15H15.038V47H87.038V15Z" stroke="black" stroke-miterlimit="3.8637" stroke-width="2"/>
<path d="M17.086 132.74C17.086 131.988 16.668 131.376 16.152 131.376H10.822C10.306 131.376 9.888 131.986 9.888 132.74V143.568C9.888 144.32 10.306 144.93 10.822 144.93H16.152C16.668 144.93 17.086 144.32 17.086 143.568V132.74Z" fill="white" stroke="black" stroke-linejoin="bevel" stroke-miterlimit="3.8637" stroke-width="3.6488"/>
<path d="M14.758 144.522H12.218V163.002H14.758V144.522Z" fill="#020405" stroke="black" stroke-miterlimit="3.8637" stroke-width="0.4664"/>
<path d="M47.01 9.26196C46.516 9.26196 46.116 9.53598 46.116 9.87598V13.376C46.116 13.716 46.516 13.99 47.01 13.99H54.122C54.616 13.99 55.016 13.716 55.016 13.376V9.87598C55.016 9.53598 54.616 9.26196 54.122 9.26196H47.01Z" fill="white" stroke="black" stroke-linejoin="bevel" stroke-miterlimit="3.8637" stroke-width="2.3962"/>
<path d="M34 10.792V12.46H46.136V10.792H34Z" fill="#020405" stroke="black" stroke-miterlimit="3.8637" stroke-width="0.3062"/>
<defs>
<linearGradient gradientUnits="userSpaceOnUse" id="paint0_linear_413_196" x1="51.2393" x2="51.2393" y1="28.3177" y2="47.1218">
<stop stop-color="white"/>
<stop offset="1" stop-color="white" stop-opacity="0"/>
</linearGradient>
<linearGradient gradientUnits="userSpaceOnUse" id="paint1_linear_413_196" x1="51" x2="51" y1="127.082" y2="207">
<stop stop-color="white"/>
<stop offset="1" stop-color="white" stop-opacity="0"/>
</linearGradient>
</defs>
</svg>