<svg xmlns:xlink="http://www.w3.org/1999/xlink" xmlns="http://www.w3.org/2000/svg" fill="none" height="172" viewBox="0 0 102 172" width="102">
<path d="M18.5195 18.3273H84.5195V154.327H18.5195V18.3273Z" fill="#BDD2ED"/>
<path d="M18.5195 18.3273H84.5195V154.327H18.5195V18.3273Z" fill="url(#paint0_linear_412_65)"/>
<path d="M1 1H101V171H1V1ZM9 9H93V163H9V9Z" stroke="black" stroke-miterlimit="3.8637" stroke-width="2"/>
<path d="M18 18H84V154H18V18Z" stroke="black" stroke-miterlimit="3.8637" stroke-width="2"/>
<path d="M18.05 20L83.482 84.996L18.05 154.418L50.546 17.9399L83.76 154.078" stroke="black" stroke-miterlimit="3.8637" stroke-width="2"/>
<path d="M84.7656 79.838C84.7656 79.086 85.1836 78.474 85.6996 78.474H91.0297C91.5457 78.474 91.9636 79.084 91.9636 79.838V90.666C91.9636 91.418 91.5457 92.028 91.0297 92.028H85.6996C85.1836 92.028 84.7656 91.418 84.7656 90.666V79.838Z" fill="white" stroke="black" stroke-linejoin="bevel" stroke-miterlimit="3.8637" stroke-width="3.6488"/>
<path d="M87.0938 91.618H89.6337V110.098H87.0938V91.618Z" fill="#020405" stroke="black" stroke-miterlimit="3.8637" stroke-width="0.4664"/>
<defs>
<linearGradient gradientUnits="userSpaceOnUse" id="paint0_linear_412_65" x1="51.5195" x2="51.5195" y1="74.4097" y2="154.327">
<stop stop-color="white"/>
<stop offset="1" stop-color="white" stop-opacity="0"/>
</linearGradient>
</defs>
</svg>