<svg xmlns:xlink="http://www.w3.org/1999/xlink" xmlns="http://www.w3.org/2000/svg" fill="none" height="172" viewBox="0 0 102 172" width="102">
<path d="M83.4805 18.3273H17.4805V154.327H83.4805V18.3273Z" fill="#BDD2ED"/>
<path d="M83.4805 18.3273H17.4805V154.327H83.4805V18.3273Z" fill="url(#paint0_linear_412_102)"/>
<path d="M101 1H1V171H101V1ZM93 9H9V163H93V9Z" stroke="black" stroke-miterlimit="3.8637" stroke-width="2"/>
<path d="M84 18H18V154H84V18Z" stroke="black" stroke-miterlimit="3.8637" stroke-width="2"/>
<path d="M18.24 154.078L51.454 17.9399L83.95 154.418" stroke="black" stroke-miterlimit="3.8637" stroke-width="2"/>
<path d="M46.364 11C45.612 11 45 11.3484 45 11.7786L45 16.2215C45 16.6516 45.61 17 46.364 17L57.192 17C57.944 17 58.554 16.6516 58.554 16.2215L58.554 11.7786C58.554 11.3484 57.944 11 57.192 11L46.364 11Z" fill="white" stroke="black" stroke-linejoin="bevel" stroke-miterlimit="3.8637" stroke-width="3.6488"/>
<path d="M58.554 12.9406L58.554 15.0579L77.0339 15.0579L77.0339 12.9406L58.554 12.9406Z" fill="#020405" stroke="black" stroke-miterlimit="3.8637" stroke-width="0.4664"/>
<defs>
<linearGradient gradientUnits="userSpaceOnUse" id="paint0_linear_412_102" x1="50.4805" x2="50.4805" y1="74.4097" y2="154.327">
<stop stop-color="white"/>
<stop offset="1" stop-color="white" stop-opacity="0"/>
</linearGradient>
</defs>
</svg>