<svg xmlns:xlink="http://www.w3.org/1999/xlink" xmlns="http://www.w3.org/2000/svg" fill="none" height="226" viewBox="0 0 102 226" width="102">
<path d="M14.8447 15.6606H86.8447V47.6606H14.8447V15.6606Z" fill="#BDD2ED"/>
<path d="M14.8447 15.6606H86.8447V47.6606H14.8447V15.6606Z" fill="url(#paint0_linear_413_128)"/>
<path d="M8.84473 61.6606H92.8447V215.661H8.84473V61.6606Z" fill="#BDD2ED"/>
<path d="M8.84473 61.6606H92.8447V215.661H8.84473V61.6606Z" fill="url(#paint1_linear_413_128)"/>
<path d="M1 1H101V225H1V1Z" stroke="black" stroke-miterlimit="3.8637" stroke-width="2"/>
<path d="M9 62.3199H93V216.32H9V62.3199Z" stroke="black" stroke-miterlimit="3.8637" stroke-width="2"/>
<path d="M9 9H93V53H9V9Z" stroke="black" stroke-miterlimit="3.8637" stroke-width="2"/>
<path d="M51 124.82V153.82M65.5 139.32H36.5M15 15H87V47H15V15ZM16.6 46.8539L51.034 15.608L85.375 46.8539H16.6Z" stroke="black" stroke-miterlimit="3.8637" stroke-width="2"/>
<path d="M54.606 9.52795C55.1 9.52795 55.502 9.80197 55.502 10.142V13.642C55.502 13.982 55.1 14.256 54.606 14.256H47.494C47 14.256 46.6 13.982 46.6 13.642V10.142C46.6 9.80197 47 9.52795 47.494 9.52795H54.606Z" fill="white" stroke="black" stroke-linejoin="bevel" stroke-miterlimit="3.8637" stroke-width="2.3962"/>
<path d="M46.87 11.058V12.724H34.732V11.058H46.87Z" fill="#020405" stroke="black" stroke-miterlimit="3.8637" stroke-width="0.3062"/>
<defs>
<linearGradient gradientUnits="userSpaceOnUse" id="paint0_linear_413_128" x1="50.8447" x2="50.8447" y1="28.8565" y2="47.6606">
<stop stop-color="white"/>
<stop offset="1" stop-color="white" stop-opacity="0"/>
</linearGradient>
<linearGradient gradientUnits="userSpaceOnUse" id="paint1_linear_413_128" x1="50.8447" x2="50.8447" y1="125.166" y2="215.661">
<stop stop-color="white"/>
<stop offset="1" stop-color="white" stop-opacity="0"/>
</linearGradient>
</defs>
</svg>