<svg xmlns:xlink="http://www.w3.org/1999/xlink" xmlns="http://www.w3.org/2000/svg" fill="none" height="226" viewBox="0 0 102 226" width="102">
<path d="M93.2393 9.12183H9.23926V53.1218H93.2393V9.12183Z" fill="#BDD2ED"/>
<path d="M93.2393 9.12183H9.23926V53.1218H93.2393V9.12183Z" fill="url(#paint0_linear_413_148)"/>
<path d="M85.2393 71.1218H19.2393V207.122H85.2393V71.1218Z" fill="#BDD2ED"/>
<path d="M85.2393 71.1218H19.2393V207.122H85.2393V71.1218Z" fill="url(#paint1_linear_413_148)"/>
<path d="M101 1H1V225H101V1ZM93 62.322H9V216.322H93V62.322Z" stroke="black" stroke-miterlimit="3.8637" stroke-width="2"/>
<path d="M84 71.142H18V207.142H84V71.142Z" stroke="black" stroke-miterlimit="3.8637" stroke-width="2"/>
<path d="M83.76 207.218L50.546 71.082L18.05 207.56M18.052 72.6L83.484 138.14L18.74 205.7L18.052 72.6Z" stroke="black" stroke-miterlimit="3.8637" stroke-width="2"/>
<path d="M42.496 31H59.506M93 9H9V53H93V9ZM51 22.494V39.504V22.494Z" stroke="black" stroke-miterlimit="3.8637" stroke-width="2"/>
<path d="M91.932 132.576C91.932 131.824 91.514 131.212 90.998 131.212H85.668C85.152 131.212 84.734 131.822 84.734 132.576V143.404C84.734 144.156 85.152 144.768 85.668 144.768H91C91.516 144.768 91.934 144.158 91.934 143.404V132.576H91.932Z" fill="white" stroke="black" stroke-linejoin="bevel" stroke-miterlimit="3.8637" stroke-width="3.6488"/>
<path d="M89.604 144.358H87.064V162.836H89.604V144.358Z" fill="#020405" stroke="black" stroke-miterlimit="3.8637" stroke-width="0.4664"/>
<defs>
<linearGradient gradientUnits="userSpaceOnUse" id="paint0_linear_413_148" x1="51.2393" x2="51.2393" y1="27.2662" y2="53.1218">
<stop stop-color="white"/>
<stop offset="1" stop-color="white" stop-opacity="0"/>
</linearGradient>
<linearGradient gradientUnits="userSpaceOnUse" id="paint1_linear_413_148" x1="52.2393" x2="52.2393" y1="127.204" y2="207.122">
<stop stop-color="white"/>
<stop offset="1" stop-color="white" stop-opacity="0"/>
</linearGradient>
</defs>
</svg>