<svg xmlns:xlink="http://www.w3.org/1999/xlink" xmlns="http://www.w3.org/2000/svg" fill="none" height="226" viewBox="0 0 102 226" width="102">
<path d="M8.76074 9.12183H92.7607V53.1218H8.76074V9.12183Z" fill="#BDD2ED"/>
<path d="M8.76074 9.12183H92.7607V53.1218H8.76074V9.12183Z" fill="url(#paint0_linear_413_185)"/>
<path d="M16.7607 71.1218H82.7607V207.122H16.7607V71.1218Z" fill="#BDD2ED"/>
<path d="M16.7607 71.1218H82.7607V207.122H16.7607V71.1218Z" fill="url(#paint1_linear_413_185)"/>
<path d="M1 1H101V225H1V1ZM9 62.322H93V216.322H9V62.322Z" stroke="black" stroke-miterlimit="3.8637" stroke-width="2"/>
<path d="M18 71.142H84V207.142H18V71.142Z" stroke="black" stroke-miterlimit="3.8637" stroke-width="2"/>
<path d="M18.24 207.218L51.454 71.082L83.95 207.56M83.948 72.6L18.516 138.14L83.26 205.7L83.948 72.6Z" stroke="black" stroke-miterlimit="3.8637" stroke-width="2"/>
<path d="M59.504 31H42.494M9 9H93V53H9V9ZM51 22.494V39.504V22.494Z" stroke="black" stroke-miterlimit="3.8637" stroke-width="2"/>
<path d="M10.068 132.576C10.068 131.824 10.486 131.212 11.002 131.212H16.332C16.848 131.212 17.266 131.822 17.266 132.576V143.404C17.266 144.156 16.848 144.768 16.332 144.768H11C10.484 144.768 10.066 144.158 10.066 143.404V132.576H10.068Z" fill="white" stroke="black" stroke-linejoin="bevel" stroke-miterlimit="3.8637" stroke-width="3.6488"/>
<path d="M12.396 144.358H14.936V162.836H12.396V144.358Z" fill="#020405" stroke="black" stroke-miterlimit="3.8637" stroke-width="0.4664"/>
<defs>
<linearGradient gradientUnits="userSpaceOnUse" id="paint0_linear_413_185" x1="50.7607" x2="50.7607" y1="27.2662" y2="53.1218">
<stop stop-color="white"/>
<stop offset="1" stop-color="white" stop-opacity="0"/>
</linearGradient>
<linearGradient gradientUnits="userSpaceOnUse" id="paint1_linear_413_185" x1="49.7607" x2="49.7607" y1="127.204" y2="207.122">
<stop stop-color="white"/>
<stop offset="1" stop-color="white" stop-opacity="0"/>
</linearGradient>
</defs>
</svg>