<svg xmlns:xlink="http://www.w3.org/1999/xlink" xmlns="http://www.w3.org/2000/svg" fill="none" height="172" viewBox="0 0 202 172" width="202">
<path d="M107.115 9.45142H191.115V163.451H107.115V9.45142Z" fill="#BDD2ED"/>
<path d="M107.115 9.45142H191.115V163.451H107.115V9.45142Z" fill="url(#paint0_linear_413_347)"/>
<path d="M11.1152 9.45142H95.1152V163.451H11.1152V9.45142Z" fill="#BDD2ED"/>
<path d="M11.1152 9.45142H95.1152V163.451H11.1152V9.45142Z" fill="url(#paint1_linear_413_347)"/>
<path d="M11.266 9.09595H95.266V163.098H11.266V9.09595Z" stroke="black" stroke-miterlimit="3.8637" stroke-width="2"/>
<path d="M163.234 85.9H134.234M106.734 8.89996H190.734V162.9H106.734V8.89996ZM1 1H200.998V171H1V1ZM53.266 71.5959V100.598V71.5959ZM67.766 86.0959H38.766H67.766ZM148.734 71.4V100.402V71.4Z" stroke="black" stroke-miterlimit="3.8637" stroke-width="2"/>
<defs>
<linearGradient gradientUnits="userSpaceOnUse" id="paint0_linear_413_347" x1="149.115" x2="149.115" y1="72.9566" y2="163.451">
<stop stop-color="white"/>
<stop offset="1" stop-color="white" stop-opacity="0"/>
</linearGradient>
<linearGradient gradientUnits="userSpaceOnUse" id="paint1_linear_413_347" x1="53.1152" x2="53.1152" y1="72.9566" y2="163.451">
<stop stop-color="white"/>
<stop offset="1" stop-color="white" stop-opacity="0"/>
</linearGradient>
</defs>
</svg>