<svg xmlns:xlink="http://www.w3.org/1999/xlink" xmlns="http://www.w3.org/2000/svg" fill="none" height="172" viewBox="0 0 202 172" width="202">
<path d="M106.721 8.9978H190.721V162.998H106.721V8.9978Z" fill="#BDD2ED"/>
<path d="M106.721 8.9978H190.721V162.998H106.721V8.9978Z" fill="url(#paint0_linear_413_426)"/>
<path d="M21 17H87V154H21V17Z" fill="#BDD2ED"/>
<path d="M21 17H87V154H21V17Z" fill="url(#paint1_linear_413_426)"/>
<path d="M11.266 9.09796H95.266V163.098H11.266V9.09796Z" stroke="black" stroke-miterlimit="3.8637" stroke-width="2"/>
<path d="M106.734 8.89996H190.734V162.9H106.734V8.89996ZM1 1H201V171H1V1Z" stroke="black" stroke-miterlimit="3.8637" stroke-width="2"/>
<path d="M20.266 17.918H86.266V153.918H20.266V17.918Z" stroke="black" stroke-miterlimit="3.8637" stroke-width="2"/>
<path d="M86.026 153.996L52.814 17.86L20.318 154.338M20.318 19.5L85.75 84.9139L20.998 152.5L20.318 19.5Z" stroke="black" stroke-miterlimit="3.8637" stroke-width="2"/>
<path d="M163.234 85.9H134.234M148.734 71.402V100.402V71.402Z" stroke="black" stroke-miterlimit="3.8637" stroke-width="2"/>
<path d="M87.036 79.634C87.036 78.882 87.454 78.27 87.97 78.27H93.3C93.816 78.27 94.234 78.88 94.234 79.634V90.462C94.234 91.214 93.816 91.826 93.3 91.826H87.97C87.454 91.826 87.036 91.216 87.036 90.462V79.634Z" fill="white" stroke="black" stroke-linejoin="bevel" stroke-miterlimit="3.8637" stroke-width="3.6488"/>
<path d="M89.364 91.416H91.904V109.894H89.364V91.416Z" fill="#020405" stroke="black" stroke-miterlimit="3.8637" stroke-width="0.4664"/>
<defs>
<linearGradient gradientUnits="userSpaceOnUse" id="paint0_linear_413_426" x1="148.721" x2="148.721" y1="72.503" y2="162.998">
<stop stop-color="white"/>
<stop offset="1" stop-color="white" stop-opacity="0"/>
</linearGradient>
<linearGradient gradientUnits="userSpaceOnUse" id="paint1_linear_413_426" x1="54" x2="54" y1="73.4948" y2="154">
<stop stop-color="white"/>
<stop offset="1" stop-color="white" stop-opacity="0"/>
</linearGradient>
</defs>
</svg>