<svg xmlns:xlink="http://www.w3.org/1999/xlink" xmlns="http://www.w3.org/2000/svg" fill="none" height="172" viewBox="0 0 202 172" width="202">
<path d="M95.2773 8.9978H11.2773V162.998H95.2773V8.9978Z" fill="#BDD2ED"/>
<path d="M95.2773 8.9978H11.2773V162.998H95.2773V8.9978Z" fill="url(#paint0_linear_413_364)"/>
<path d="M181 17H115V154H181V17Z" fill="#BDD2ED"/>
<path d="M181 17H115V154H181V17Z" fill="url(#paint1_linear_413_364)"/>
<path d="M191 9H107V163H191V9Z" stroke="black" stroke-miterlimit="3.8637" stroke-width="2"/>
<path d="M95.264 8.89996H11.264V162.9H95.264V8.89996ZM200.998 1H0.998047V171H200.998V1Z" stroke="black" stroke-miterlimit="3.8637" stroke-width="2"/>
<path d="M181.732 17.918H115.732V153.918H181.732V17.918Z" stroke="black" stroke-miterlimit="3.8637" stroke-width="2"/>
<path d="M115.972 153.996L149.184 17.86L181.68 154.338M181.68 19.5L116.248 84.9139L181 152.5L181.68 19.5Z" stroke="black" stroke-miterlimit="3.8637" stroke-width="2"/>
<path d="M38.764 85.9H67.764M53.264 71.402V100.402V71.402Z" stroke="black" stroke-miterlimit="3.8637" stroke-width="2"/>
<path d="M114.962 79.634C114.962 78.882 114.544 78.27 114.028 78.27H108.698C108.182 78.27 107.764 78.88 107.764 79.634V90.462C107.764 91.214 108.182 91.826 108.698 91.826H114.028C114.544 91.826 114.962 91.216 114.962 90.462V79.634Z" fill="white" stroke="black" stroke-linejoin="bevel" stroke-miterlimit="3.8637" stroke-width="3.6488"/>
<path d="M112.634 91.416H110.094V109.894H112.634V91.416Z" fill="#020405" stroke="black" stroke-miterlimit="3.8637" stroke-width="0.4664"/>
<defs>
<linearGradient gradientUnits="userSpaceOnUse" id="paint0_linear_413_364" x1="53.2773" x2="53.2773" y1="72.503" y2="162.998">
<stop stop-color="white"/>
<stop offset="1" stop-color="white" stop-opacity="0"/>
</linearGradient>
<linearGradient gradientUnits="userSpaceOnUse" id="paint1_linear_413_364" x1="148" x2="148" y1="73.4948" y2="154">
<stop stop-color="white"/>
<stop offset="1" stop-color="white" stop-opacity="0"/>
</linearGradient>
</defs>
</svg>