<svg xmlns:xlink="http://www.w3.org/1999/xlink" xmlns="http://www.w3.org/2000/svg" fill="none" height="172" viewBox="0 0 290 172" width="290">
<path d="M268 18H203V154H268V18Z" fill="#BDD2ED"/>
<path d="M268 18H203V154H268V18Z" fill="url(#paint0_linear_418_1562)"/>
<path d="M184 18H119V154H184V18Z" fill="#BDD2ED"/>
<path d="M184 18H119V154H184V18Z" fill="url(#paint1_linear_418_1562)"/>
<path d="M97 9H13V163H97V9Z" fill="#BDD2ED"/>
<path d="M97 9H13V163H97V9Z" fill="url(#paint2_linear_418_1562)"/>
<path d="M184.538 17.8198H118.538V153.82H184.538V17.8198Z" stroke="black" stroke-miterlimit="3.8637" stroke-width="2"/>
<path d="M118.588 18.1021L184.02 84.816L119.272 153.554" stroke="black" stroke-miterlimit="3.8637" stroke-width="2"/>
<path d="M268.494 17.8198H202.494V153.82H268.494V17.8198Z" stroke="black" stroke-miterlimit="3.8637" stroke-width="2"/>
<path d="M202.734 153.896L235.948 17.76L268.444 154.238M268 19.5L203.012 84.816L268.444 152L268 19.5Z" stroke="black" stroke-miterlimit="3.8637" stroke-width="2"/>
<path d="M277.494 9H193.494V163H277.494V9Z" stroke="#020405" stroke-miterlimit="3.8637" stroke-width="2"/>
<path d="M193.538 9H109.538V163H193.538V9Z" stroke="black" stroke-miterlimit="3.8637" stroke-width="2"/>
<path d="M40.004 86H69.006M96.506 9H12.506V163H96.506V9ZM54.506 71.498V100.5V71.498Z" stroke="black" stroke-miterlimit="3.8637" stroke-width="2"/>
<path d="M289 1H1V171H289V1Z" stroke="black" stroke-miterlimit="3.8637" stroke-width="2"/>
<path d="M201.648 71.884C201.648 71.132 201.23 70.52 200.714 70.52H195.384C194.868 70.52 194.45 71.13 194.45 71.884V82.712C194.45 83.464 194.868 84.074 195.384 84.074H200.714C201.23 84.074 201.648 83.464 201.648 82.712V71.884Z" fill="white" stroke="black" stroke-linejoin="bevel" stroke-miterlimit="3.8637" stroke-width="3.6488"/>
<path d="M199.318 83.6641H196.778V102.144H199.318V83.6641Z" fill="#020405" stroke="black" stroke-miterlimit="3.8637" stroke-width="0.4664"/>
<defs>
<linearGradient gradientUnits="userSpaceOnUse" id="paint0_linear_418_1562" x1="235.5" x2="235.5" y1="74.0825" y2="154">
<stop stop-color="white"/>
<stop offset="1" stop-color="white" stop-opacity="0"/>
</linearGradient>
<linearGradient gradientUnits="userSpaceOnUse" id="paint1_linear_418_1562" x1="151.5" x2="151.5" y1="74.0825" y2="154">
<stop stop-color="white"/>
<stop offset="1" stop-color="white" stop-opacity="0"/>
</linearGradient>
<linearGradient gradientUnits="userSpaceOnUse" id="paint2_linear_418_1562" x1="55" x2="55" y1="72.5052" y2="163">
<stop stop-color="white"/>
<stop offset="1" stop-color="white" stop-opacity="0"/>
</linearGradient>
</defs>
</svg>