<svg xmlns:xlink="http://www.w3.org/1999/xlink" xmlns="http://www.w3.org/2000/svg" fill="none" height="172" viewBox="0 0 302 172" width="302">
<path d="M281 18H215V154H281V18Z" fill="#BDD2ED"/>
<path d="M281 18H215V154H281V18Z" fill="url(#paint0_linear_418_1326)"/>
<path d="M193.239 8.91504H109.239V162.915H193.239V8.91504Z" fill="#BDD2ED"/>
<path d="M193.239 8.91504H109.239V162.915H193.239V8.91504Z" fill="url(#paint1_linear_418_1326)"/>
<path d="M95 9H12V163H95V9Z" fill="#BDD2ED"/>
<path d="M95 9H12V163H95V9Z" fill="url(#paint2_linear_418_1326)"/>
<path d="M281.032 17.8199H215.032V153.82H281.032V17.8199Z" stroke="black" stroke-miterlimit="3.8637" stroke-width="2"/>
<path d="M215.272 153.896L248.486 17.76L280.982 154.238M280.982 19.5L215.55 84.816L280.982 152V19.5Z" stroke="black" stroke-miterlimit="3.8637" stroke-width="2"/>
<path d="M301 1H1V171H301V1Z" stroke="black" stroke-miterlimit="3.8637" stroke-width="2"/>
<path d="M290.032 9H206.032V163H290.032V9Z" stroke="black" stroke-miterlimit="3.8637" stroke-width="2"/>
<path d="M193 9H109V163H193V9Z" stroke="black" stroke-miterlimit="3.8637" stroke-width="2"/>
<path d="M39.468 86H68.47M95.968 9H11.968V163H95.968V9ZM151 71.5V100.5V71.5ZM136.5 86H165.5H136.5ZM53.968 71.5V100.5V71.5Z" stroke="black" stroke-miterlimit="3.8637" stroke-width="2"/>
<path d="M213.978 78.2019C213.978 77.4499 213.56 76.8379 213.044 76.8379H207.714C207.198 76.8379 206.78 77.4479 206.78 78.2019V89.0299C206.78 89.7819 207.198 90.3939 207.714 90.3939H213.044C213.56 90.3939 213.978 89.7839 213.978 89.0299V78.2019Z" fill="white" stroke="black" stroke-linejoin="bevel" stroke-miterlimit="3.8637" stroke-width="3.6488"/>
<path d="M211.65 89.9839H209.11V108.464H211.65V89.9839Z" fill="#020405" stroke="black" stroke-miterlimit="3.8637" stroke-width="0.4664"/>
<defs>
<linearGradient gradientUnits="userSpaceOnUse" id="paint0_linear_418_1326" x1="248" x2="248" y1="74.0825" y2="154">
<stop stop-color="white"/>
<stop offset="1" stop-color="white" stop-opacity="0"/>
</linearGradient>
<linearGradient gradientUnits="userSpaceOnUse" id="paint1_linear_418_1326" x1="151.239" x2="151.239" y1="72.4202" y2="162.915">
<stop stop-color="white"/>
<stop offset="1" stop-color="white" stop-opacity="0"/>
</linearGradient>
<linearGradient gradientUnits="userSpaceOnUse" id="paint2_linear_418_1326" x1="53.5" x2="53.5" y1="72.5052" y2="163">
<stop stop-color="white"/>
<stop offset="1" stop-color="white" stop-opacity="0"/>
</linearGradient>
</defs>
</svg>