<svg xmlns:xlink="http://www.w3.org/1999/xlink" xmlns="http://www.w3.org/2000/svg" fill="none" height="172" viewBox="0 0 302 172" width="302">
<path d="M21 17.8408H87V153.841H21V17.8408Z" fill="#BDD2ED"/>
<path d="M21 17.8408H87V153.841H21V17.8408Z" fill="url(#paint0_linear_418_1407)"/>
<path d="M118 18H184V154H118V18Z" fill="#BDD2ED"/>
<path d="M118 18H184V154H118V18Z" fill="url(#paint1_linear_418_1407)"/>
<path d="M206 9H290V163H206V9Z" fill="#BDD2ED"/>
<path d="M206 9H290V163H206V9Z" fill="url(#paint2_linear_418_1407)"/>
<path d="M118 17.8198H184V153.82H118V17.8198Z" stroke="black" stroke-miterlimit="3.8637" stroke-width="2"/>
<path d="M118.24 153.896L151.454 17.76L183.95 154.238M183.948 19.5L118.516 84.816L183.95 152L183.948 19.5Z" stroke="black" stroke-miterlimit="3.8637" stroke-width="2"/>
<path d="M20.968 17.8198H86.968V153.82H20.968V17.8198Z" stroke="black" stroke-miterlimit="3.8637" stroke-width="2"/>
<path d="M86.728 153.896L53.516 17.76L21.02 154.238M21.018 19.5L86.45 84.816L21.018 152L21.018 19.5Z" stroke="black" stroke-miterlimit="3.8637" stroke-width="2"/>
<path d="M1 1H301V171H1V1Z" stroke="black" stroke-miterlimit="3.8637" stroke-width="2"/>
<path d="M11.968 9H95.968V163H11.968V9ZM109 9H193V163H109V9Z" stroke="black" stroke-miterlimit="3.8637" stroke-width="2"/>
<path d="M262.532 86H233.532M206.032 9H290.032V163H206.032V9ZM248.032 71.5V100.502V71.5Z" stroke="black" stroke-miterlimit="3.8637" stroke-width="2"/>
<path d="M87.876 79.364C87.876 78.612 88.294 78.002 88.81 78.002H94.14C94.656 78.002 95.074 78.612 95.074 79.364V90.192C95.074 90.944 94.656 91.554 94.14 91.554H88.81C88.294 91.554 87.876 90.944 87.876 90.192V79.364Z" fill="white" stroke="black" stroke-linejoin="bevel" stroke-miterlimit="3.8637" stroke-width="3.6488"/>
<path d="M90.206 91.146H92.746V109.626H90.206V91.146Z" fill="#020405" stroke="black" stroke-miterlimit="3.8637" stroke-width="0.4664"/>
<path d="M108.86 79.364C108.86 78.612 109.278 78.002 109.794 78.002H115.124C115.64 78.002 116.058 78.612 116.058 79.364V90.192C116.058 90.944 115.64 91.554 115.124 91.554H109.794C109.278 91.554 108.86 90.944 108.86 90.192V79.364Z" fill="white" stroke="black" stroke-linejoin="bevel" stroke-miterlimit="3.8637" stroke-width="3.6488"/>
<path d="M112.188 91.146H114.728V109.626H112.188V91.146Z" fill="#020405" stroke="black" stroke-miterlimit="3.8637" stroke-width="0.4664"/>
<defs>
<linearGradient gradientUnits="userSpaceOnUse" id="paint0_linear_418_1407" x1="54" x2="54" y1="73.9233" y2="153.841">
<stop stop-color="white"/>
<stop offset="1" stop-color="white" stop-opacity="0"/>
</linearGradient>
<linearGradient gradientUnits="userSpaceOnUse" id="paint1_linear_418_1407" x1="151" x2="151" y1="74.0825" y2="154">
<stop stop-color="white"/>
<stop offset="1" stop-color="white" stop-opacity="0"/>
</linearGradient>
<linearGradient gradientUnits="userSpaceOnUse" id="paint2_linear_418_1407" x1="248" x2="248" y1="72.5052" y2="163">
<stop stop-color="white"/>
<stop offset="1" stop-color="white" stop-opacity="0"/>
</linearGradient>
</defs>
</svg>