<svg xmlns:xlink="http://www.w3.org/1999/xlink" xmlns="http://www.w3.org/2000/svg" fill="none" height="172" viewBox="0 0 302 172" width="302">
<path d="M11.8164 9.38867H95.8164V163.389H11.8164V9.38867Z" fill="#BDD2ED"/>
<path d="M11.8164 9.38867H95.8164V163.389H11.8164V9.38867Z" fill="url(#paint0_linear_414_1297)"/>
<path d="M109 9H193V163H109V9Z" fill="#BDD2ED"/>
<path d="M109 9H193V163H109V9Z" fill="url(#paint1_linear_414_1297)"/>
<path d="M205.816 9.38867H289.816V163.389H205.816V9.38867Z" fill="#BDD2ED"/>
<path d="M205.816 9.38867H289.816V163.389H205.816V9.38867Z" fill="url(#paint2_linear_414_1297)"/>
<path d="M1 1H301V171H1V1Z" stroke="black" stroke-miterlimit="3.8637" stroke-width="2"/>
<path d="M11.968 9H95.968V163H11.968V9Z" stroke="black" stroke-miterlimit="3.8637" stroke-width="2"/>
<path d="M109 9H193V163H109V9Z" stroke="black" stroke-miterlimit="3.8637" stroke-width="2"/>
<path d="M262.532 86H233.53M206.032 9H290.032V163H206.032V9ZM53.968 71.5V100.502V71.5ZM68.468 86H39.466H68.468ZM151 71.5V100.502V71.5ZM165.5 86H136.498H165.5ZM248.032 71.5V100.502V71.5Z" stroke="black" stroke-miterlimit="3.8637" stroke-width="2"/>
<defs>
<linearGradient gradientUnits="userSpaceOnUse" id="paint0_linear_414_1297" x1="53.8164" x2="53.8164" y1="72.8938" y2="163.389">
<stop stop-color="white"/>
<stop offset="1" stop-color="white" stop-opacity="0"/>
</linearGradient>
<linearGradient gradientUnits="userSpaceOnUse" id="paint1_linear_414_1297" x1="151" x2="151" y1="72.5052" y2="163">
<stop stop-color="white"/>
<stop offset="1" stop-color="white" stop-opacity="0"/>
</linearGradient>
<linearGradient gradientUnits="userSpaceOnUse" id="paint2_linear_414_1297" x1="247.816" x2="247.816" y1="72.8938" y2="163.389">
<stop stop-color="white"/>
<stop offset="1" stop-color="white" stop-opacity="0"/>
</linearGradient>
</defs>
</svg>