<svg xmlns:xlink="http://www.w3.org/1999/xlink" xmlns="http://www.w3.org/2000/svg" fill="none" height="172" viewBox="0 0 302 172" width="302">
<path d="M21 18H87V154H21V18Z" fill="#BDD2ED"/>
<path d="M21 18H87V154H21V18Z" fill="url(#paint0_linear_418_1365)"/>
<path d="M108.761 8.91504H192.761V162.915H108.761V8.91504Z" fill="#BDD2ED"/>
<path d="M108.761 8.91504H192.761V162.915H108.761V8.91504Z" fill="url(#paint1_linear_418_1365)"/>
<path d="M207 9H290V163H207V9Z" fill="#BDD2ED"/>
<path d="M207 9H290V163H207V9Z" fill="url(#paint2_linear_418_1365)"/>
<path d="M20.968 17.8199H86.968V153.82H20.968V17.8199Z" stroke="black" stroke-miterlimit="3.8637" stroke-width="2"/>
<path d="M86.728 153.896L53.514 17.76L21.018 154.238M21 19.5L86.45 84.816L21 152V19.5Z" stroke="black" stroke-miterlimit="3.8637" stroke-width="2"/>
<path d="M1 1H301V171H1V1Z" stroke="black" stroke-miterlimit="3.8637" stroke-width="2"/>
<path d="M11.968 9H95.968V163H11.968V9Z" stroke="black" stroke-miterlimit="3.8637" stroke-width="2"/>
<path d="M109 9H193V163H109V9Z" stroke="black" stroke-miterlimit="3.8637" stroke-width="2"/>
<path d="M262.532 86H233.53M206.032 9H290.032V163H206.032V9ZM151 71.5V100.5V71.5ZM165.5 86H136.5H165.5ZM248.032 71.5V100.5V71.5Z" stroke="black" stroke-miterlimit="3.8637" stroke-width="2"/>
<path d="M88.022 78.2019C88.022 77.4499 88.44 76.8379 88.956 76.8379H94.286C94.802 76.8379 95.22 77.4479 95.22 78.2019V89.0299C95.22 89.7819 94.802 90.3939 94.286 90.3939H88.956C88.44 90.3939 88.022 89.7839 88.022 89.0299V78.2019Z" fill="white" stroke="black" stroke-linejoin="bevel" stroke-miterlimit="3.8637" stroke-width="3.6488"/>
<path d="M90.35 89.9839H92.89V108.464H90.35V89.9839Z" fill="#020405" stroke="black" stroke-miterlimit="3.8637" stroke-width="0.4664"/>
<defs>
<linearGradient gradientUnits="userSpaceOnUse" id="paint0_linear_418_1365" x1="54" x2="54" y1="74.0825" y2="154">
<stop stop-color="white"/>
<stop offset="1" stop-color="white" stop-opacity="0"/>
</linearGradient>
<linearGradient gradientUnits="userSpaceOnUse" id="paint1_linear_418_1365" x1="150.761" x2="150.761" y1="72.4202" y2="162.915">
<stop stop-color="white"/>
<stop offset="1" stop-color="white" stop-opacity="0"/>
</linearGradient>
<linearGradient gradientUnits="userSpaceOnUse" id="paint2_linear_418_1365" x1="248.5" x2="248.5" y1="72.5052" y2="163">
<stop stop-color="white"/>
<stop offset="1" stop-color="white" stop-opacity="0"/>
</linearGradient>
</defs>
</svg>