<svg xmlns:xlink="http://www.w3.org/1999/xlink" xmlns="http://www.w3.org/2000/svg" fill="none" height="172" viewBox="0 0 290 172" width="290">
<path d="M22 18H88V154H22V18Z" fill="#BDD2ED"/>
<path d="M22 18H88V154H22V18Z" fill="url(#paint0_linear_418_1530)"/>
<path d="M119 18H184V154H119V18Z" fill="#BDD2ED"/>
<path d="M119 18H184V154H119V18Z" fill="url(#paint1_linear_418_1530)"/>
<path d="M203 18H268V154H203V18Z" fill="#BDD2ED"/>
<path d="M203 18H268V154H203V18Z" fill="url(#paint2_linear_418_1530)"/>
<path d="M118.538 17.8198H184.538V153.82H118.538V17.8198Z" stroke="black" stroke-miterlimit="3.8637" stroke-width="2"/>
<path d="M118.588 18.1021L184.02 84.8181L119.272 153.556" stroke="black" stroke-miterlimit="3.8637" stroke-width="2"/>
<path d="M202.494 17.8198H268.494V153.82H202.494V17.8198Z" stroke="black" stroke-miterlimit="3.8637" stroke-width="2"/>
<path d="M202.734 153.898L235.948 17.762L268.444 154.24M268.5 19.5L203.012 84.816L268.5 152V19.5Z" stroke="black" stroke-miterlimit="3.8637" stroke-width="2"/>
<path d="M277.494 9H193.494V163H277.494V9Z" stroke="#020405" stroke-miterlimit="3.8637" stroke-width="2"/>
<path d="M193.538 9H109.538V163H193.538V9ZM96.506 9H12.506V163H96.506V9ZM1 1H289V171H1V1Z" stroke="black" stroke-miterlimit="3.8637" stroke-width="2"/>
<path d="M21.506 17.8198H87.506V153.82H21.506V17.8198Z" stroke="black" stroke-miterlimit="3.8637" stroke-width="2"/>
<path d="M87.266 153.898L54.052 17.762L21.556 154.24M21.556 19.5L86.988 84.816L21.556 152L21.556 19.5Z" stroke="black" stroke-miterlimit="3.8637" stroke-width="2"/>
<path d="M194.268 79.3479C194.268 78.5959 194.686 77.9839 195.202 77.9839H200.532C201.048 77.9839 201.466 78.5939 201.466 79.3479V90.1759C201.466 90.9279 201.048 91.5399 200.532 91.5399H195.202C194.686 91.5399 194.268 90.9299 194.268 90.1759V79.3479Z" fill="white" stroke="black" stroke-linejoin="bevel" stroke-miterlimit="3.8637" stroke-width="3.6488"/>
<path d="M196.598 91.1299H199.138V109.61H196.598V91.1299Z" fill="#020405" stroke="black" stroke-miterlimit="3.8637" stroke-width="0.4664"/>
<path d="M88.344 79.3479C88.344 78.5959 88.762 77.9839 89.278 77.9839H94.608C95.124 77.9839 95.542 78.5939 95.542 79.3479V90.1759C95.542 90.9279 95.124 91.5399 94.608 91.5399H89.278C88.762 91.5399 88.344 90.9299 88.344 90.1759V79.3479Z" fill="white" stroke="black" stroke-linejoin="bevel" stroke-miterlimit="3.8637" stroke-width="3.6488"/>
<path d="M90.674 91.1299H93.214V109.61H90.674V91.1299Z" fill="#020405" stroke="black" stroke-miterlimit="3.8637" stroke-width="0.4664"/>
<defs>
<linearGradient gradientUnits="userSpaceOnUse" id="paint0_linear_418_1530" x1="55" x2="55" y1="74.0825" y2="154">
<stop stop-color="white"/>
<stop offset="1" stop-color="white" stop-opacity="0"/>
</linearGradient>
<linearGradient gradientUnits="userSpaceOnUse" id="paint1_linear_418_1530" x1="151.5" x2="151.5" y1="74.0825" y2="154">
<stop stop-color="white"/>
<stop offset="1" stop-color="white" stop-opacity="0"/>
</linearGradient>
<linearGradient gradientUnits="userSpaceOnUse" id="paint2_linear_418_1530" x1="235.5" x2="235.5" y1="74.0825" y2="154">
<stop stop-color="white"/>
<stop offset="1" stop-color="white" stop-opacity="0"/>
</linearGradient>
</defs>
</svg>