<svg xmlns:xlink="http://www.w3.org/1999/xlink" xmlns="http://www.w3.org/2000/svg" fill="none" height="172" viewBox="0 0 302 172" width="302">
<path d="M184 18H118V154H184V18Z" fill="#BDD2ED"/>
<path d="M184 18H118V154H184V18Z" fill="url(#paint0_linear_418_1378)"/>
<path d="M290 9H206V162H290V9Z" fill="#BDD2ED"/>
<path d="M290 9H206V162H290V9Z" fill="url(#paint1_linear_418_1378)"/>
<path d="M96 9H12V162H96V9Z" fill="#BDD2ED"/>
<path d="M96 9H12V162H96V9Z" fill="url(#paint2_linear_418_1378)"/>
<path d="M1 1H301V171H1V1Z" stroke="black" stroke-miterlimit="3.8637" stroke-width="2"/>
<path d="M11.968 9H95.968V163H11.968V9Z" stroke="black" stroke-miterlimit="3.8637" stroke-width="2"/>
<path d="M109 9H193V163H109V9Z" stroke="black" stroke-miterlimit="3.8637" stroke-width="2"/>
<path d="M262.532 86H233.532M206.032 9H290.032V163H206.032V9ZM53.968 71.5V100.502V71.5ZM68.468 86H39.468H68.468ZM248.032 71.5V100.502V71.5Z" stroke="black" stroke-miterlimit="3.8637" stroke-width="2"/>
<path d="M184 17.8198H118V153.82H184V17.8198Z" stroke="black" stroke-miterlimit="3.8637" stroke-width="2"/>
<path d="M183.76 153.896L150.546 17.76L118.05 154.238M118.05 19.5L183.482 84.816L118.05 152V19.5Z" stroke="black" stroke-miterlimit="3.8637" stroke-width="2"/>
<path d="M192.074 78.49C192.074 77.738 191.656 77.126 191.14 77.126H185.81C185.294 77.126 184.876 77.736 184.876 78.49V89.318C184.876 90.07 185.294 90.68 185.81 90.68H191.14C191.656 90.68 192.074 90.07 192.074 89.318V78.49Z" fill="white" stroke="black" stroke-linejoin="bevel" stroke-miterlimit="3.8637" stroke-width="3.6488"/>
<path d="M189.746 90.272H187.206V108.752H189.746V90.272Z" fill="#020405" stroke="black" stroke-miterlimit="3.8637" stroke-width="0.4664"/>
<defs>
<linearGradient gradientUnits="userSpaceOnUse" id="paint0_linear_418_1378" x1="151" x2="151" y1="74.0825" y2="154">
<stop stop-color="white"/>
<stop offset="1" stop-color="white" stop-opacity="0"/>
</linearGradient>
<linearGradient gradientUnits="userSpaceOnUse" id="paint1_linear_418_1378" x1="248" x2="248" y1="72.0928" y2="162">
<stop stop-color="white"/>
<stop offset="1" stop-color="white" stop-opacity="0"/>
</linearGradient>
<linearGradient gradientUnits="userSpaceOnUse" id="paint2_linear_418_1378" x1="54" x2="54" y1="72.0928" y2="162">
<stop stop-color="white"/>
<stop offset="1" stop-color="white" stop-opacity="0"/>
</linearGradient>
</defs>
</svg>