<svg xmlns:xlink="http://www.w3.org/1999/xlink" xmlns="http://www.w3.org/2000/svg" fill="none" height="172" viewBox="0 0 302 172" width="302">
<path d="M118 18H184V154H118V18Z" fill="#BDD2ED"/>
<path d="M118 18H184V154H118V18Z" fill="url(#paint0_linear_418_1352)"/>
<path d="M12 9H96V162H12V9Z" fill="#BDD2ED"/>
<path d="M12 9H96V162H12V9Z" fill="url(#paint1_linear_418_1352)"/>
<path d="M206 9H290V163H206V9Z" fill="#BDD2ED"/>
<path d="M206 9H290V163H206V9Z" fill="url(#paint2_linear_418_1352)"/>
<path d="M301 1H1V171H301V1Z" stroke="black" stroke-miterlimit="3.8637" stroke-width="2"/>
<path d="M290.032 9H206.032V163H290.032V9Z" stroke="black" stroke-miterlimit="3.8637" stroke-width="2"/>
<path d="M193 9H109V163H193V9Z" stroke="black" stroke-miterlimit="3.8637" stroke-width="2"/>
<path d="M39.468 86H68.468M95.968 9H11.968V163H95.968V9ZM248.032 71.5V100.502V71.5ZM233.532 86H262.532H233.532ZM53.968 71.5V100.502V71.5Z" stroke="black" stroke-miterlimit="3.8637" stroke-width="2"/>
<path d="M118 17.8199H184V153.82H118V17.8199Z" stroke="black" stroke-miterlimit="3.8637" stroke-width="2"/>
<path d="M118.24 153.896L151.454 17.76L183.95 154.238M183.95 19.5L118.518 84.816L183.95 152V19.5Z" stroke="black" stroke-miterlimit="3.8637" stroke-width="2"/>
<path d="M109.926 78.49C109.926 77.738 110.344 77.126 110.86 77.126H116.19C116.706 77.126 117.124 77.736 117.124 78.49V89.318C117.124 90.07 116.706 90.68 116.19 90.68H110.86C110.344 90.68 109.926 90.07 109.926 89.318V78.49Z" fill="white" stroke="black" stroke-linejoin="bevel" stroke-miterlimit="3.8637" stroke-width="3.6488"/>
<path d="M112.254 90.272H114.794V108.752H112.254V90.272Z" fill="#020405" stroke="black" stroke-miterlimit="3.8637" stroke-width="0.4664"/>
<defs>
<linearGradient gradientUnits="userSpaceOnUse" id="paint0_linear_418_1352" x1="151" x2="151" y1="74.0825" y2="154">
<stop stop-color="white"/>
<stop offset="1" stop-color="white" stop-opacity="0"/>
</linearGradient>
<linearGradient gradientUnits="userSpaceOnUse" id="paint1_linear_418_1352" x1="54" x2="54" y1="72.0928" y2="162">
<stop stop-color="white"/>
<stop offset="1" stop-color="white" stop-opacity="0"/>
</linearGradient>
<linearGradient gradientUnits="userSpaceOnUse" id="paint2_linear_418_1352" x1="248" x2="248" y1="72.5052" y2="163">
<stop stop-color="white"/>
<stop offset="1" stop-color="white" stop-opacity="0"/>
</linearGradient>
</defs>
</svg>