<svg xmlns:xlink="http://www.w3.org/1999/xlink" xmlns="http://www.w3.org/2000/svg" fill="none" height="188" viewBox="0 0 102 188" width="102">
<path d="M84 16H69.5L18 68.5V170H84V16Z" fill="#BDD2ED"/>
<path d="M84 16H69.5L18 68.5V170H84V16Z" fill="url(#paint0_linear_430_18)"/>
<path d="M101 1L64.6 1.008L1 59V187H101V1ZM92.998 9L66.764 8.99799L8.99799 63V179H92.998V9Z" stroke="black" stroke-miterlimit="3.8637" stroke-width="2"/>
<path d="M83.998 15.9999L69.538 15.9919L17.998 67.9999V170H83.998V15.9999Z" stroke="black" stroke-miterlimit="3.8637" stroke-width="2"/>
<path d="M18.262 170.762L51.398 35.17L83.946 170.418M83.946 18.282L20.514 106.996L83.262 169.734L83.946 18.282Z" stroke="black" stroke-miterlimit="3.8637" stroke-width="2"/>
<path d="M10.342 101.232C10.342 100.48 10.762 99.8679 11.276 99.8679H16.604C17.12 99.8679 17.538 100.478 17.538 101.232V112.06C17.538 112.812 17.12 113.424 16.604 113.424H11.276C10.76 113.424 10.342 112.814 10.342 112.06V101.232Z" fill="white" stroke="black" stroke-linejoin="bevel" stroke-miterlimit="3.8637" stroke-width="3.6488"/>
<path d="M12.67 113.012H15.212V131.492H12.67V113.012Z" fill="#020405" stroke="black" stroke-miterlimit="3.8637" stroke-width="0.4664"/>
<defs>
<linearGradient gradientUnits="userSpaceOnUse" id="paint0_linear_430_18" x1="51" x2="51" y1="79.5052" y2="170">
<stop stop-color="white"/>
<stop offset="1" stop-color="white" stop-opacity="0"/>
</linearGradient>
</defs>
</svg>