<svg xmlns:xlink="http://www.w3.org/1999/xlink" xmlns="http://www.w3.org/2000/svg" fill="none" height="192" viewBox="0 0 197 192" width="197">
<path d="M94.1246 11.0374H68.1563L10.2271 65.2388V181.671H94.1246V11.0374Z" fill="#BDD2ED"/>
<path d="M94.1246 11.0374H68.1563L10.2271 65.2388V181.671H94.1246V11.0374Z" fill="url(#paint0_linear_432_168)"/>
<path d="M103.114 11.0374H129.082L187.011 65.2388V181.671H103.114V11.0374Z" fill="#BDD2ED"/>
<path d="M103.114 11.0374H129.082L187.011 65.2388V181.671H103.114V11.0374Z" fill="url(#paint1_linear_432_168)"/>
<path d="M103.253 10.6136L129.457 10.6116L187.151 64.815V181.248H103.253V10.6136Z" stroke="black" stroke-miterlimit="3.8637" stroke-width="2"/>
<path d="M94.2682 10.6136L68.0642 10.6116L10.3706 64.815V181.248H94.2682V10.6136Z" stroke="black" stroke-miterlimit="3.8637" stroke-width="2"/>
<path d="M63.6016 1.00398L133.053 1L196 60.5151V191H100.878H100.117H1V60.5151L63.6016 1.00398Z" stroke="black" stroke-miterlimit="3.8637" stroke-width="2"/>
<defs>
<linearGradient gradientUnits="userSpaceOnUse" id="paint0_linear_432_168" x1="98.6192" x2="98.6192" y1="81.4019" y2="181.671">
<stop stop-color="white"/>
<stop offset="1" stop-color="white" stop-opacity="0"/>
</linearGradient>
<linearGradient gradientUnits="userSpaceOnUse" id="paint1_linear_432_168" x1="98.6192" x2="98.6192" y1="81.4019" y2="181.671">
<stop stop-color="white"/>
<stop offset="1" stop-color="white" stop-opacity="0"/>
</linearGradient>
</defs>
</svg>