<svg xmlns:xlink="http://www.w3.org/1999/xlink" xmlns="http://www.w3.org/2000/svg" fill="none" height="175" viewBox="0 0 202 175" width="202">
<path d="M11 25L14.8245 23.7724C39.148 15.9648 64.4693 11.7019 90.0084 11.1147L95 11V167H11V25Z" fill="#BDD2ED"/>
<path d="M11 25L14.8245 23.7724C39.148 15.9648 64.4693 11.7019 90.0084 11.1147L95 11V167H11V25Z" fill="url(#paint0_linear_433_618)"/>
<path d="M191 25L187.175 23.7724C162.852 15.9648 137.531 11.7019 111.992 11.1147L107 11V167H191V25Z" fill="#BDD2ED"/>
<path d="M191 25L187.175 23.7724C162.852 15.9648 137.531 11.7019 111.992 11.1147L107 11V167H191V25Z" fill="url(#paint1_linear_433_618)"/>
<path d="M11.268 24.7545C38.108 16.3212 65.5 11.5 95.268 10.709V166.716H11.268V24.7545Z" stroke="black" stroke-miterlimit="3.8637" stroke-width="1.917"/>
<path d="M106.736 10.5286C142.928 12.8381 170.93 17.5193 190.736 24.5741V166.534H106.736V10.5286ZM1 17.2905C64.918 -4.60639 133.376 -4.25325 201 17.2905V174H1V17.2905Z" stroke="black" stroke-miterlimit="3.8637" stroke-width="1.917"/>
<defs>
<linearGradient gradientUnits="userSpaceOnUse" id="paint0_linear_433_618" x1="149" x2="149" y1="75.3299" y2="167">
<stop stop-color="white"/>
<stop offset="1" stop-color="white" stop-opacity="0"/>
<stop offset="1" stop-color="white" stop-opacity="0"/>
</linearGradient>
<linearGradient gradientUnits="userSpaceOnUse" id="paint1_linear_433_618" x1="149" x2="149" y1="75.3299" y2="167">
<stop stop-color="white"/>
<stop offset="1" stop-color="white" stop-opacity="0"/>
<stop offset="1" stop-color="white" stop-opacity="0"/>
</linearGradient>
</defs>
</svg>