<svg xmlns:xlink="http://www.w3.org/1999/xlink" xmlns="http://www.w3.org/2000/svg" fill="none" height="270" viewBox="0 0 202 270" width="202">
<path d="M11 107H95V261H11V107Z" fill="#BDD2ED"/>
<path d="M11 107H95V261H11V107Z" fill="url(#paint0_linear_432_538)"/>
<path d="M107 107H191V261H107V107Z" fill="#BDD2ED"/>
<path d="M107 107H191V261H107V107Z" fill="url(#paint1_linear_432_538)"/>
<path d="M12 99C12 49.8467 52.3467 10 101.5 10C150.653 10 191 49.8467 191 99H12Z" fill="#BDD2ED"/>
<path d="M12 99C12 49.8467 52.3467 10 101.5 10C150.653 10 191 49.8467 191 99H12Z" fill="url(#paint2_linear_432_538)"/>
<path d="M11.2793 106.798H95.2768V260.99H11.2793V106.798Z" stroke="black" stroke-miterlimit="3.8637" stroke-width="2"/>
<path d="M106.724 106.798H190.722V260.99H106.724V106.798ZM200.996 269H1.00153V98.7878C2.08949 44.4261 47.1141 1 101.671 1C156.225 1 199.94 44.4261 200.998 98.7878C201.008 99.4587 200.996 269 200.996 269Z" stroke="black" stroke-miterlimit="3.8637" stroke-width="2"/>
<path d="M12.0251 98.5875C12.0251 49.188 52.404 9.85693 101.74 9.85693C151.077 9.85693 190.688 49.188 190.688 98.5875H12.0251Z" stroke="black" stroke-miterlimit="3.8637" stroke-width="2"/>
<defs>
<linearGradient gradientUnits="userSpaceOnUse" id="paint0_linear_432_538" x1="101" x2="101" y1="10" y2="261">
<stop stop-color="white"/>
<stop offset="1" stop-color="white" stop-opacity="0"/>
</linearGradient>
<linearGradient gradientUnits="userSpaceOnUse" id="paint1_linear_432_538" x1="101" x2="101" y1="10" y2="261">
<stop stop-color="white"/>
<stop offset="1" stop-color="white" stop-opacity="0"/>
</linearGradient>
<linearGradient gradientUnits="userSpaceOnUse" id="paint2_linear_432_538" x1="101" x2="101" y1="10" y2="261">
<stop stop-color="white"/>
<stop offset="1" stop-color="white" stop-opacity="0"/>
</linearGradient>
</defs>
</svg>