<svg xmlns:xlink="http://www.w3.org/1999/xlink" xmlns="http://www.w3.org/2000/svg" fill="none" height="198" viewBox="0 0 197 198" width="197">
<path d="M185.774 72.8946L101.877 14.9807V188.722H185.774V72.8946Z" fill="#BDD2ED"/>
<path d="M185.774 72.8946L101.877 14.9807V188.722H185.774V72.8946Z" fill="url(#paint0_linear_432_121)"/>
<path d="M8.99023 73.5603L92.8878 15.9792V188.722H8.99023V73.5603Z" fill="#BDD2ED"/>
<path d="M8.99023 73.5603L92.8878 15.9792V188.722H8.99023V73.5603Z" fill="url(#paint1_linear_432_121)"/>
<path d="M102.117 15.2703L186.014 73.1841V189.012H102.117V15.2703Z" stroke="black" stroke-miterlimit="3.8637" stroke-width="2"/>
<path d="M92.8898 15.2703L8.99219 73.1841V189.012H92.8898V15.2703Z" stroke="black" stroke-miterlimit="3.8637" stroke-width="2"/>
<path d="M97.5581 2L196 67.193V197H100.878H100.117H1V67.193L97.5581 2Z" stroke="black" stroke-miterlimit="3.8637" stroke-width="2"/>
<defs>
<linearGradient gradientUnits="userSpaceOnUse" id="paint0_linear_432_121" x1="97.3824" x2="97.3824" y1="86.6268" y2="188.722">
<stop stop-color="white"/>
<stop offset="1" stop-color="white" stop-opacity="0"/>
</linearGradient>
<linearGradient gradientUnits="userSpaceOnUse" id="paint1_linear_432_121" x1="97.3824" x2="97.3824" y1="86.6268" y2="188.722">
<stop stop-color="white"/>
<stop offset="1" stop-color="white" stop-opacity="0"/>
</linearGradient>
</defs>
</svg>